<?xml version="1.0" encoding="UTF-8" standalone="no"?>
<!DOCTYPE svg PUBLIC "-//W3C//DTD SVG 1.1//EN"
 "http://www.w3.org/Graphics/SVG/1.1/DTD/svg11.dtd">
<!-- Generated by graphviz version 2.43.0 (0)
 -->
<!-- Title: provenance Pages: 1 -->
<svg width="568pt" height="545pt"
 viewBox="0.00 0.00 567.54 545.00" xmlns="http://www.w3.org/2000/svg" xmlns:xlink="http://www.w3.org/1999/xlink">
<g id="graph0" class="graph" transform="scale(1 1) rotate(0) translate(4 541)">
<title>provenance</title>
<polygon fill="#ffffff" stroke="transparent" points="-4,4 -4,-541 563.54,-541 563.54,4 -4,4"/>
<!-- proc:c62cdb9d9b4c4b1eb327582eb23e6dbe -->
<g id="node1" class="node">
<title>proc:c62cdb9d9b4c4b1eb327582eb23e6dbe</title>
<path fill="#e38851" stroke="#2e7d32" d="M350.54,-435C350.54,-435 212.54,-435 212.54,-435 206.54,-435 200.54,-429 200.54,-423 200.54,-423 200.54,-409 200.54,-409 200.54,-403 206.54,-397 212.54,-397 212.54,-397 350.54,-397 350.54,-397 356.54,-397 362.54,-403 362.54,-409 362.54,-409 362.54,-423 362.54,-423 362.54,-429 356.54,-435 350.54,-435"/>
<text text-anchor="middle" x="281.54" y="-419.8" font-family="Helvetica,sans-Serif" font-size="14.00">AddMultiply (c62cdb9...)</text>
<text text-anchor="middle" x="281.54" y="-404.8" font-family="Helvetica,sans-Serif" font-size="14.00">state=FINISHED</text>
</g>
<!-- proc:4b61b43941064c2485350e3feee7f233 -->
<g id="node2" class="node">
<title>proc:4b61b43941064c2485350e3feee7f233</title>
<path fill="#de707f" fill-opacity="0.466667" stroke="#2f5597" d="M186.04,-346C186.04,-346 93.04,-346 93.04,-346 87.04,-346 81.04,-340 81.04,-334 81.04,-334 81.04,-320 81.04,-320 81.04,-314 87.04,-308 93.04,-308 93.04,-308 186.04,-308 186.04,-308 192.04,-308 198.04,-314 198.04,-320 198.04,-320 198.04,-334 198.04,-334 198.04,-340 192.04,-346 186.04,-346"/>
<text text-anchor="middle" x="139.54" y="-330.8" font-family="Helvetica,sans-Serif" font-size="14.00">add (4b61b43...)</text>
<text text-anchor="middle" x="139.54" y="-315.8" font-family="Helvetica,sans-Serif" font-size="14.00">state=FINISHED</text>
</g>
<!-- proc:c62cdb9d9b4c4b1eb327582eb23e6dbe&#45;&gt;proc:4b61b43941064c2485350e3feee7f233 -->
<g id="edge4" class="edge">
<title>proc:c62cdb9d9b4c4b1eb327582eb23e6dbe&#45;&gt;proc:4b61b43941064c2485350e3feee7f233</title>
<path fill="none" stroke="#546e7a" stroke-dasharray="5,2" d="M212.01,-396.96C200.24,-392.19 188.59,-386.28 178.54,-379 169.61,-372.52 161.75,-363.43 155.48,-354.71"/>
<polygon fill="#546e7a" stroke="#546e7a" points="158.24,-352.56 149.74,-346.23 152.44,-356.47 158.24,-352.56"/>
<text text-anchor="middle" x="195.54" y="-367.8" font-family="Helvetica,sans-Serif" font-size="14.00">CALL</text>
</g>
<!-- proc:a8a8a7b2ccc04cca8286dbf938e7d1e3 -->
<g id="node3" class="node">
<title>proc:a8a8a7b2ccc04cca8286dbf938e7d1e3</title>
<path fill="#de707f" fill-opacity="0.466667" stroke="#2f5597" d="M489.54,-140C489.54,-140 373.54,-140 373.54,-140 367.54,-140 361.54,-134 361.54,-128 361.54,-128 361.54,-114 361.54,-114 361.54,-108 367.54,-102 373.54,-102 373.54,-102 489.54,-102 489.54,-102 495.54,-102 501.54,-108 501.54,-114 501.54,-114 501.54,-128 501.54,-128 501.54,-134 495.54,-140 489.54,-140"/>
<text text-anchor="middle" x="431.54" y="-124.8" font-family="Helvetica,sans-Serif" font-size="14.00">multiply (a8a8a7b...)</text>
<text text-anchor="middle" x="431.54" y="-109.8" font-family="Helvetica,sans-Serif" font-size="14.00">state=FINISHED</text>
</g>
<!-- proc:c62cdb9d9b4c4b1eb327582eb23e6dbe&#45;&gt;proc:a8a8a7b2ccc04cca8286dbf938e7d1e3 -->
<g id="edge8" class="edge">
<title>proc:c62cdb9d9b4c4b1eb327582eb23e6dbe&#45;&gt;proc:a8a8a7b2ccc04cca8286dbf938e7d1e3</title>
<path fill="none" stroke="#546e7a" stroke-dasharray="5,2" d="M309.01,-396.83C348.52,-368.92 420.01,-311.37 450.54,-242 465.59,-207.81 463.66,-193.96 453.54,-158 452.7,-154.99 451.52,-151.99 450.15,-149.07"/>
<polygon fill="#546e7a" stroke="#546e7a" points="453.14,-147.24 445.28,-140.15 447,-150.6 453.14,-147.24"/>
<text text-anchor="middle" x="456.54" y="-271.3" font-family="Helvetica,sans-Serif" font-size="14.00">CALL</text>
</g>
<!-- data:c02a903b&#45;c558&#45;4b94&#45;8b65&#45;5b7153e3fd78 -->
<g id="node8" class="node">
<title>data:c02a903b&#45;c558&#45;4b94&#45;8b65&#45;5b7153e3fd78</title>
<ellipse fill="#8cd499" stroke="#d46a0b" cx="242.54" cy="-18" rx="69.59" ry="18"/>
<text text-anchor="middle" x="242.54" y="-14.3" font-family="Helvetica,sans-Serif" font-size="14.00">int (c02a903...)</text>
</g>
<!-- proc:c62cdb9d9b4c4b1eb327582eb23e6dbe&#45;&gt;data:c02a903b&#45;c558&#45;4b94&#45;8b65&#45;5b7153e3fd78 -->
<g id="edge12" class="edge">
<title>proc:c62cdb9d9b4c4b1eb327582eb23e6dbe&#45;&gt;data:c02a903b&#45;c558&#45;4b94&#45;8b65&#45;5b7153e3fd78</title>
<path fill="none" stroke="#7b1fa2" stroke-dasharray="1,5" d="M261.38,-396.72C245.68,-380.4 226.54,-354.98 226.54,-328 226.54,-328 226.54,-328 226.54,-120 226.54,-94.6 231.54,-66.05 235.95,-45.8"/>
<polygon fill="#7b1fa2" stroke="#7b1fa2" points="239.37,-46.55 238.17,-36.03 232.54,-45 239.37,-46.55"/>
<text text-anchor="middle" x="255.04" y="-227.8" font-family="Helvetica,sans-Serif" font-size="14.00">RETURN</text>
<text text-anchor="middle" x="255.04" y="-212.8" font-family="Helvetica,sans-Serif" font-size="14.00">result</text>
</g>
<!-- data:2d91843c&#45;af12&#45;4107&#45;a899&#45;389b4be690c5 -->
<g id="node7" class="node">
<title>data:2d91843c&#45;af12&#45;4107&#45;a899&#45;389b4be690c5</title>
<ellipse fill="#8cd499" stroke="#d46a0b" cx="371.54" cy="-224" rx="69.59" ry="18"/>
<text text-anchor="middle" x="371.54" y="-220.3" font-family="Helvetica,sans-Serif" font-size="14.00">int (2d91843...)</text>
</g>
<!-- proc:4b61b43941064c2485350e3feee7f233&#45;&gt;data:2d91843c&#45;af12&#45;4107&#45;a899&#45;389b4be690c5 -->
<g id="edge7" class="edge">
<title>proc:4b61b43941064c2485350e3feee7f233&#45;&gt;data:2d91843c&#45;af12&#45;4107&#45;a899&#45;389b4be690c5</title>
<path fill="none" stroke="black" d="M181.02,-307.94C222.58,-289.85 286.28,-262.12 328.41,-243.78"/>
<polygon fill="black" stroke="black" points="329.81,-246.98 337.59,-239.78 327.02,-240.57 329.81,-246.98"/>
<text text-anchor="middle" x="317.04" y="-278.8" font-family="Helvetica,sans-Serif" font-size="14.00">CREATE</text>
<text text-anchor="middle" x="317.04" y="-263.8" font-family="Helvetica,sans-Serif" font-size="14.00">result</text>
</g>
<!-- proc:a8a8a7b2ccc04cca8286dbf938e7d1e3&#45;&gt;data:c02a903b&#45;c558&#45;4b94&#45;8b65&#45;5b7153e3fd78 -->
<g id="edge11" class="edge">
<title>proc:a8a8a7b2ccc04cca8286dbf938e7d1e3&#45;&gt;data:c02a903b&#45;c558&#45;4b94&#45;8b65&#45;5b7153e3fd78</title>
<path fill="none" stroke="black" d="M397.75,-101.94C364.85,-84.36 314.93,-57.68 280.63,-39.35"/>
<polygon fill="black" stroke="black" points="281.87,-36.05 271.4,-34.42 278.57,-42.22 281.87,-36.05"/>
<text text-anchor="middle" x="386.04" y="-72.8" font-family="Helvetica,sans-Serif" font-size="14.00">CREATE</text>
<text text-anchor="middle" x="386.04" y="-57.8" font-family="Helvetica,sans-Serif" font-size="14.00">result</text>
</g>
<!-- data:6d0ac093&#45;aa2c&#45;4650&#45;b687&#45;a14fb751621a -->
<g id="node4" class="node">
<title>data:6d0ac093&#45;aa2c&#45;4650&#45;b687&#45;a14fb751621a</title>
<ellipse fill="#8cd499" stroke="#d46a0b" cx="69.54" cy="-519" rx="69.59" ry="18"/>
<text text-anchor="middle" x="69.54" y="-515.3" font-family="Helvetica,sans-Serif" font-size="14.00">int (6d0ac09...)</text>
</g>
<!-- data:6d0ac093&#45;aa2c&#45;4650&#45;b687&#45;a14fb751621a&#45;&gt;proc:c62cdb9d9b4c4b1eb327582eb23e6dbe -->
<g id="edge1" class="edge">
<title>data:6d0ac093&#45;aa2c&#45;4650&#45;b687&#45;a14fb751621a&#45;&gt;proc:c62cdb9d9b4c4b1eb327582eb23e6dbe</title>
<path fill="none" stroke="black" d="M101.28,-502.88C136.54,-486.08 193.82,-458.79 234.34,-439.49"/>
<polygon fill="black" stroke="black" points="235.96,-442.59 243.48,-435.13 232.95,-436.27 235.96,-442.59"/>
<text text-anchor="middle" x="222.04" y="-471.8" font-family="Helvetica,sans-Serif" font-size="14.00">INPUT</text>
<text text-anchor="middle" x="222.04" y="-456.8" font-family="Helvetica,sans-Serif" font-size="14.00">x</text>
</g>
<!-- data:6d0ac093&#45;aa2c&#45;4650&#45;b687&#45;a14fb751621a&#45;&gt;proc:4b61b43941064c2485350e3feee7f233 -->
<g id="edge5" class="edge">
<title>data:6d0ac093&#45;aa2c&#45;4650&#45;b687&#45;a14fb751621a&#45;&gt;proc:4b61b43941064c2485350e3feee7f233</title>
<path fill="none" stroke="black" d="M67.48,-500.77C65.31,-476.55 63.97,-431.55 78.54,-397 85.54,-380.41 98.19,-365.06 110.16,-353.07"/>
<polygon fill="black" stroke="black" points="112.67,-355.51 117.47,-346.06 107.83,-350.46 112.67,-355.51"/>
<text text-anchor="middle" x="99.04" y="-419.8" font-family="Helvetica,sans-Serif" font-size="14.00">INPUT</text>
<text text-anchor="middle" x="99.04" y="-404.8" font-family="Helvetica,sans-Serif" font-size="14.00">x</text>
</g>
<!-- data:ab3ba7b2&#45;5195&#45;48a0&#45;92df&#45;b53fc7764d1d -->
<g id="node5" class="node">
<title>data:ab3ba7b2&#45;5195&#45;48a0&#45;92df&#45;b53fc7764d1d</title>
<ellipse fill="#8cd499" stroke="#d46a0b" cx="244.54" cy="-519" rx="69.59" ry="18"/>
<text text-anchor="middle" x="244.54" y="-515.3" font-family="Helvetica,sans-Serif" font-size="14.00">int (ab3ba7b...)</text>
</g>
<!-- data:ab3ba7b2&#45;5195&#45;48a0&#45;92df&#45;b53fc7764d1d&#45;&gt;proc:c62cdb9d9b4c4b1eb327582eb23e6dbe -->
<g id="edge2" class="edge">
<title>data:ab3ba7b2&#45;5195&#45;48a0&#45;92df&#45;b53fc7764d1d&#45;&gt;proc:c62cdb9d9b4c4b1eb327582eb23e6dbe</title>
<path fill="none" stroke="black" d="M250.82,-500.87C256.46,-485.48 264.83,-462.62 271.42,-444.64"/>
<polygon fill="black" stroke="black" points="274.71,-445.84 274.86,-435.24 268.13,-443.43 274.71,-445.84"/>
<text text-anchor="middle" x="287.04" y="-471.8" font-family="Helvetica,sans-Serif" font-size="14.00">INPUT</text>
<text text-anchor="middle" x="287.04" y="-456.8" font-family="Helvetica,sans-Serif" font-size="14.00">y</text>
</g>
<!-- data:ab3ba7b2&#45;5195&#45;48a0&#45;92df&#45;b53fc7764d1d&#45;&gt;proc:4b61b43941064c2485350e3feee7f233 -->
<g id="edge6" class="edge">
<title>data:ab3ba7b2&#45;5195&#45;48a0&#45;92df&#45;b53fc7764d1d&#45;&gt;proc:4b61b43941064c2485350e3feee7f233</title>
<path fill="none" stroke="black" d="M217.66,-502.32C195.58,-487.86 165.58,-464.24 150.54,-435 137.99,-410.6 136.23,-378.95 137,-356.42"/>
<polygon fill="black" stroke="black" points="140.51,-356.33 137.55,-346.16 133.52,-355.96 140.51,-356.33"/>
<text text-anchor="middle" x="171.04" y="-419.8" font-family="Helvetica,sans-Serif" font-size="14.00">INPUT</text>
<text text-anchor="middle" x="171.04" y="-404.8" font-family="Helvetica,sans-Serif" font-size="14.00">y</text>
</g>
<!-- data:a40cb6bf&#45;3ea1&#45;4c07&#45;b704&#45;2355d00b23ff -->
<g id="node6" class="node">
<title>data:a40cb6bf&#45;3ea1&#45;4c07&#45;b704&#45;2355d00b23ff</title>
<ellipse fill="#8cd499" stroke="#d46a0b" cx="469.54" cy="-519" rx="69.59" ry="18"/>
<text text-anchor="middle" x="469.54" y="-515.3" font-family="Helvetica,sans-Serif" font-size="14.00">int (a40cb6b...)</text>
</g>
<!-- data:a40cb6bf&#45;3ea1&#45;4c07&#45;b704&#45;2355d00b23ff&#45;&gt;proc:c62cdb9d9b4c4b1eb327582eb23e6dbe -->
<g id="edge3" class="edge">
<title>data:a40cb6bf&#45;3ea1&#45;4c07&#45;b704&#45;2355d00b23ff&#45;&gt;proc:c62cdb9d9b4c4b1eb327582eb23e6dbe</title>
<path fill="none" stroke="black" d="M440.58,-502.44C409.57,-485.78 360.03,-459.17 324.48,-440.07"/>
<polygon fill="black" stroke="black" points="325.78,-436.79 315.31,-435.14 322.46,-442.96 325.78,-436.79"/>
<text text-anchor="middle" x="423.04" y="-471.8" font-family="Helvetica,sans-Serif" font-size="14.00">INPUT</text>
<text text-anchor="middle" x="423.04" y="-456.8" font-family="Helvetica,sans-Serif" font-size="14.00">z</text>
</g>
<!-- data:a40cb6bf&#45;3ea1&#45;4c07&#45;b704&#45;2355d00b23ff&#45;&gt;proc:a8a8a7b2ccc04cca8286dbf938e7d1e3 -->
<g id="edge10" class="edge">
<title>data:a40cb6bf&#45;3ea1&#45;4c07&#45;b704&#45;2355d00b23ff&#45;&gt;proc:a8a8a7b2ccc04cca8286dbf938e7d1e3</title>
<path fill="none" stroke="black" d="M483.45,-501.32C497.94,-482.22 518.54,-449.35 518.54,-417 518.54,-417 518.54,-417 518.54,-223 518.54,-190.91 493.02,-163.95 469.63,-145.98"/>
<polygon fill="black" stroke="black" points="471.62,-143.1 461.48,-140.01 467.48,-148.75 471.62,-143.1"/>
<text text-anchor="middle" x="539.04" y="-330.8" font-family="Helvetica,sans-Serif" font-size="14.00">INPUT</text>
<text text-anchor="middle" x="539.04" y="-315.8" font-family="Helvetica,sans-Serif" font-size="14.00">y</text>
</g>
<!-- data:2d91843c&#45;af12&#45;4107&#45;a899&#45;389b4be690c5&#45;&gt;proc:a8a8a7b2ccc04cca8286dbf938e7d1e3 -->
<g id="edge9" class="edge">
<title>data:2d91843c&#45;af12&#45;4107&#45;a899&#45;389b4be690c5&#45;&gt;proc:a8a8a7b2ccc04cca8286dbf938e7d1e3</title>
<path fill="none" stroke="black" d="M381.72,-205.87C390.95,-190.34 404.7,-167.19 415.42,-149.15"/>
<polygon fill="black" stroke="black" points="418.61,-150.63 420.71,-140.24 412.59,-147.05 418.61,-150.63"/>
<text text-anchor="middle" x="429.04" y="-176.8" font-family="Helvetica,sans-Serif" font-size="14.00">INPUT</text>
<text text-anchor="middle" x="429.04" y="-161.8" font-family="Helvetica,sans-Serif" font-size="14.00">x</text>
</g>
</g>
</svg>
