<?xml version="1.0" encoding="UTF-8"?>
<svg version="1.1" xmlns="http://www.w3.org/2000/svg" width="1024" height="1024">
<path d="M0 0 C337.92 0 675.84 0 1024 0 C1024 337.92 1024 675.84 1024 1024 C686.08 1024 348.16 1024 0 1024 C0 686.08 0 348.16 0 0 Z " fill="#FEFEFE" transform="translate(0,0)"/>
<path d="M0 0 C12.23069192 10.8759663 18.21122755 26.10505841 19.50390625 42.2265625 C20.95201063 77.12419417 13.23784493 105.7909765 0.93237305 138.06008911 C-3.85951489 150.63294975 -8.31730078 163.13364885 -11.49609375 176.2265625 C-11.81707031 177.49757813 -12.13804687 178.76859375 -12.46875 180.078125 C-17.45027658 200.60664849 -16.97372221 222.26912695 -12.99609375 242.9140625 C-10.56650155 255.92985617 -9.93280744 268.62533659 -9.87109375 281.8515625 C-9.85236206 283.2174501 -9.85236206 283.2174501 -9.83325195 284.6109314 C-9.42982287 320.3083539 -24.25502774 354.48121098 -47.49609375 381.2265625 C-48.25019531 382.103125 -49.00429688 382.9796875 -49.78125 383.8828125 C-53.77552638 388.4320398 -57.86444773 392.64056945 -62.5 396.53515625 C-63.82837775 397.66076792 -65.12877604 398.82027053 -66.3984375 400.01171875 C-84.74480622 417.16081965 -107.66450283 429.2201245 -130.49609375 439.2265625 C-130.00842529 439.54294678 -129.52075684 439.85933105 -129.01831055 440.18530273 C-100.16143824 458.9757452 -76.2944224 481.21336685 -68.37890625 515.84375 C-67.18074925 522.08410177 -67.20348041 528.266379 -67.24609375 534.6015625 C-67.23835937 535.74367188 -67.230625 536.88578125 -67.22265625 538.0625 C-67.24706799 548.80366677 -68.80720352 559.00187935 -71.87109375 569.2890625 C-72.11585449 570.11269287 -72.36061523 570.93632324 -72.61279297 571.78491211 C-75.78064256 581.86081901 -80.27561363 591.37310204 -84.69140625 600.94921875 C-91.44009589 615.8320457 -95.08437402 630.11010334 -94.99609375 646.5390625 C-94.98642578 648.44461914 -94.98642578 648.44461914 -94.9765625 650.38867188 C-94.77993701 660.52523327 -93.21351147 668.86798437 -89.49609375 678.2265625 C-88.80057376 680.07576784 -88.10805871 681.92610517 -87.41796875 683.77734375 C-85.74444545 688.24107586 -84.02411604 692.68397232 -82.26464844 697.11450195 C-78.23202372 708.19653386 -78.85106151 723.9902476 -83.3125 734.765625 C-83.70308594 735.57773437 -84.09367188 736.38984375 -84.49609375 737.2265625 C-84.83511719 738.01804687 -85.17414062 738.80953125 -85.5234375 739.625 C-89.8337982 748.61386609 -97.86346021 755.43942147 -107.06640625 759.09765625 C-154.52194879 774.71798859 -207.20971133 761.80125013 -250.80859375 740.3515625 C-272.77438135 729.1453513 -292.75187481 715.15660093 -310.953125 698.546875 C-312.73075943 696.92488598 -314.52091196 695.31655795 -316.3203125 693.71875 C-321.10701763 689.44793806 -325.64790359 685.17334227 -329.7734375 680.2578125 C-331.67675714 678.01353538 -333.67772563 675.87955153 -335.68359375 673.7265625 C-359.29768879 647.40003763 -378.20280135 613.9366915 -391.49609375 581.2265625 C-391.91133301 580.21883789 -392.32657227 579.21111328 -392.75439453 578.17285156 C-407.62259485 541.7368171 -417.18371691 504.48069992 -420.49609375 465.2265625 C-420.58060791 465.76394043 -420.66512207 466.30131836 -420.75219727 466.85498047 C-422.97889274 480.97342551 -425.27129597 495.08146704 -427.59860229 509.18365479 C-427.90240909 511.02826372 -428.20478478 512.87310899 -428.50564575 514.71820068 C-430.03303427 524.07664732 -431.64130051 533.3478523 -433.87280273 542.56982422 C-434.67857577 546.00438047 -435.21818085 549.42606656 -435.74609375 552.9140625 C-437.02617789 560.65429846 -438.92331547 568.20912464 -440.93359375 575.7890625 C-441.22202148 576.89531982 -441.51044922 578.00157715 -441.80761719 579.14135742 C-443.46395594 585.2459766 -445.25892472 590.77109437 -448.49609375 596.2265625 C-451.43359375 597.5390625 -451.43359375 597.5390625 -454.49609375 597.2265625 C-465.9400795 589.59723867 -467.82579721 565.61215796 -470.49609375 553.2265625 C-471.88441662 545.82921365 -472.89617052 538.37745356 -473.94970703 530.92675781 C-475.02646816 523.63480443 -476.27180678 516.36993903 -477.49609375 509.1015625 C-477.75561205 507.55681652 -478.01505275 506.0120575 -478.27441406 504.46728516 C-478.65475411 502.20213074 -479.03520406 499.93699556 -479.41629028 497.67196655 C-480.20081783 493.00456099 -480.97231413 488.33520181 -481.734375 483.6640625 C-481.91806641 482.54273926 -482.10175781 481.42141602 -482.29101562 480.26611328 C-482.62684385 478.21280884 -482.96031863 476.15911757 -483.29101562 474.10498047 C-483.51047852 472.76910889 -483.51047852 472.76910889 -483.734375 471.40625 C-483.85852783 470.64038574 -483.98268066 469.87452148 -484.1105957 469.08544922 C-484.43026872 467.14465131 -484.43026872 467.14465131 -485.49609375 465.2265625 C-485.67615967 466.6660022 -485.67615967 466.6660022 -485.85986328 468.13452148 C-488.34486466 487.80164279 -491.16800122 507.09122962 -496.49609375 526.2265625 C-496.79918457 527.32790527 -497.10227539 528.42924805 -497.41455078 529.56396484 C-506.43138161 562.00530279 -519.31458255 592.70391175 -535.49609375 622.2265625 C-535.96015625 623.07476563 -536.42421875 623.92296875 -536.90234375 624.796875 C-547.71503301 644.39487427 -560.62680678 661.98318096 -575.86328125 678.37109375 C-578.1854074 680.88960149 -580.44147911 683.44963991 -582.68359375 686.0390625 C-585.69365726 689.43909375 -588.85916296 692.44171854 -592.328125 695.3671875 C-594.78914783 697.47790257 -597.13227865 699.69511499 -599.49609375 701.9140625 C-606.42817483 708.22378824 -613.88095189 713.77182342 -621.49609375 719.2265625 C-622.09905273 719.6596875 -622.70201172 720.0928125 -623.32324219 720.5390625 C-647.73262628 737.88720889 -674.86512684 749.85604726 -703.49609375 758.2265625 C-704.25905762 758.45214844 -705.02202148 758.67773438 -705.80810547 758.91015625 C-735.31039107 767.47330483 -775.16447908 771.33517277 -803.49609375 757.2265625 C-815.73618032 750.110629 -822.18263083 740.89310905 -826.04956055 727.27783203 C-829.12996058 713.12719174 -825.48910049 699.93869076 -820.46289062 686.79589844 C-818.90076064 682.64441967 -817.5147309 678.43692309 -816.12109375 674.2265625 C-815.74573486 673.12320557 -815.74573486 673.12320557 -815.36279297 671.99755859 C-806.35365623 645.28318301 -814.22253848 617.80976122 -825.29296875 593.234375 C-828.45911708 586.17853673 -831.35139676 579.12712893 -833.80859375 571.7890625 C-834.05101807 571.0679126 -834.29344238 570.3467627 -834.54321289 569.60375977 C-835.23208407 567.48750663 -835.87431532 565.36343079 -836.49609375 563.2265625 C-836.69332031 562.58195068 -836.89054687 561.93733887 -837.09375 561.27319336 C-838.96637895 554.26504671 -838.86827557 547.10169152 -838.86669922 539.90014648 C-838.87103808 537.69239048 -838.90735164 535.48669639 -838.9453125 533.27929688 C-839.05646858 519.53833415 -836.4744054 506.86186139 -830.30859375 494.4765625 C-829.92058594 493.68000244 -829.53257812 492.88344238 -829.1328125 492.06274414 C-825.65116905 485.13244862 -821.53903698 479.13928166 -816.49609375 473.2265625 C-815.41714844 471.94072266 -815.41714844 471.94072266 -814.31640625 470.62890625 C-812.1093934 468.08809252 -809.83629699 465.64503341 -807.49609375 463.2265625 C-806.37074219 462.06253906 -806.37074219 462.06253906 -805.22265625 460.875 C-796.3516229 452.28380998 -785.84613965 445.87676606 -775.49609375 439.2265625 C-776.71002808 438.6392334 -776.71002808 438.6392334 -777.94848633 438.04003906 C-801.24457462 426.71832852 -822.81128496 415.06081711 -842.05859375 397.4375 C-843.61946521 396.02170954 -845.20133996 394.62853277 -846.80859375 393.265625 C-867.96916222 375.26444696 -883.55979165 347.40865834 -891.93359375 321.1640625 C-892.18061035 320.39102783 -892.42762695 319.61799316 -892.68212891 318.8215332 C-895.80703553 308.53473261 -895.73532495 298.20087045 -895.74609375 287.5390625 C-895.74743317 286.75689362 -895.74877258 285.97472473 -895.75015259 285.16885376 C-895.74580985 273.45887708 -895.0227985 262.20996911 -892.93261719 250.66894531 C-885.86142453 211.10506872 -892.27322862 177.43158604 -906.0234375 140.03125 C-920.51449447 100.44793919 -920.51449447 100.44793919 -923.49609375 81.2265625 C-923.68558594 80.03417969 -923.87507812 78.84179688 -924.0703125 77.61328125 C-924.80050715 71.47021948 -924.68041635 65.27842991 -924.68359375 59.1015625 C-924.69583984 57.87179688 -924.70808594 56.64203125 -924.72070312 55.375 C-924.7512556 35.98436037 -921.42593269 18.25249555 -908.49609375 3.2265625 C-890.09229187 -13.38597452 -869.00798141 -13.62899136 -845.49609375 -12.7734375 C-840.00743081 -12.35665348 -834.80948209 -11.19647328 -829.49609375 -9.7734375 C-827.84283973 -9.37726759 -826.18916152 -8.98286542 -824.53515625 -8.58984375 C-777.98106082 2.88843956 -737.58530737 29.04054442 -699.49609375 57.2265625 C-698.91408203 57.65549805 -698.33207031 58.08443359 -697.73242188 58.52636719 C-679.59879743 71.90765778 -662.01349258 86.40618802 -646.22851562 102.52636719 C-644.55863778 104.16518191 -642.83251657 105.67266627 -641.046875 107.18359375 C-635.80751407 111.74295507 -630.92159262 116.65101721 -626.02319336 121.5690918 C-624.43649429 123.16115216 -622.84451633 124.7477924 -621.25195312 126.33398438 C-616.36982649 131.21287252 -611.58310588 136.12924583 -607.0949707 141.37817383 C-604.20808792 144.71556725 -601.15242827 147.89588697 -598.12109375 151.1015625 C-596.7899113 152.52040819 -595.45917964 153.93967696 -594.12890625 155.359375 C-592.11237171 157.50972755 -590.0892549 159.65159861 -588.05078125 161.78125 C-571.95584939 178.97773613 -558.64429702 199.54605787 -545.79101562 219.24707031 C-544.90680037 220.59873269 -544.01722927 221.94690273 -543.12304688 223.29199219 C-533.78628379 237.36117497 -526.02766564 252.12677988 -518.49609375 267.2265625 C-518.02929199 268.15758789 -517.56249023 269.08861328 -517.08154297 270.04785156 C-506.11524825 292.04593585 -497.24964911 314.91855679 -489.49609375 338.2265625 C-489.22796875 337.43894531 -488.95984375 336.65132813 -488.68359375 335.83984375 C-485.55183519 327.13479118 -481.52081005 319.96336416 -476.49609375 312.2265625 C-475.4887964 310.56429603 -474.48612857 308.8991679 -473.49609375 307.2265625 C-474.22957031 306.96230469 -474.96304687 306.69804687 -475.71875 306.42578125 C-486.12623951 301.93197073 -493.17451881 293.16013309 -497.4609375 282.9609375 C-501.98817818 271.00218854 -502.41412275 256.93560545 -497.76953125 244.9453125 C-495.16313387 239.38073404 -492.30921142 234.13266057 -488.05859375 229.6640625 C-486.26734259 226.86971069 -486.37927693 226.29444559 -486.80078125 223.1328125 C-486.90753174 222.32835693 -487.01428223 221.52390137 -487.12426758 220.69506836 C-493.86647058 175.93445473 -512.30960062 130.80784887 -541.21875 95.77587891 C-542.45805237 94.27270367 -543.68049351 92.75567643 -544.90234375 91.23828125 C-546.38603328 89.40145328 -547.88910229 87.58005503 -549.4140625 85.77734375 C-551.49609375 83.2265625 -551.49609375 83.2265625 -553.234375 80.58203125 C-555.17558606 77.84884052 -556.67972718 76.06670385 -559.49609375 74.2265625 C-563.06899686 73.6696525 -566.39474312 73.48594688 -569.99609375 73.4609375 C-580.70087921 73.34864954 -589.91893084 68.75880152 -597.49609375 61.2265625 C-602.71318165 54.7217124 -605.07860677 49.67300128 -604.49609375 41.2265625 C-603.20499172 37.56844008 -601.83448382 35.5562759 -599.05859375 32.8515625 C-591.47272408 29.39134125 -584.15273761 30.73013665 -576.43359375 33.2890625 C-569.88054999 35.85549108 -564.18421726 39.10310518 -558.49609375 43.2265625 C-557.68914062 43.81050781 -556.8821875 44.39445312 -556.05078125 44.99609375 C-530.16192643 64.76652147 -511.40471468 93.24863702 -495.49609375 121.2265625 C-494.97450684 122.12979248 -494.97450684 122.12979248 -494.44238281 123.05126953 C-478.86636894 150.15353368 -466.58281914 183.11865284 -462.49609375 214.2265625 C-461.92632812 214.06414062 -461.3565625 213.90171875 -460.76953125 213.734375 C-455.10509887 212.46912378 -449.13232485 213.07041253 -443.49609375 214.2265625 C-443.34043945 213.26169922 -443.34043945 213.26169922 -443.18164062 212.27734375 C-433.93952376 158.06208082 -406.9301433 105.21892339 -369.85546875 64.8203125 C-368.21162293 63.01317073 -366.59909971 61.17724872 -365.01171875 59.3203125 C-354.29283254 46.8971093 -337.53368207 32.33288406 -320.47265625 30.98828125 C-309.23256955 30.7393749 -309.23256955 30.7393749 -304.49609375 35.2265625 C-300.94731609 39.19435246 -300.98758613 42.25165705 -301.15234375 47.4140625 C-301.9570523 53.99804154 -305.41346314 59.00390711 -310.1796875 63.4921875 C-317.17650475 68.73095117 -328.06401693 75.02809823 -337.03515625 73.91015625 C-341.71371986 73.38958368 -344.3779965 73.35350543 -348.1875 76.328125 C-350.59659503 78.9300879 -352.83968228 81.56664942 -355.02197266 84.35693359 C-356.54974995 86.2946147 -358.12950214 88.17771702 -359.7265625 90.05859375 C-366.99652399 98.69047132 -373.5121295 107.66277078 -379.49609375 117.2265625 C-379.88249023 117.8438623 -380.26888672 118.46116211 -380.66699219 119.09716797 C-383.35728609 123.42802248 -385.94706274 127.81138176 -388.49609375 132.2265625 C-389.48029297 133.90878906 -389.48029297 133.90878906 -390.484375 135.625 C-403.28649066 158.45843274 -411.76802254 184.14723864 -416.98095703 209.72949219 C-417.44493873 211.97859398 -417.94921788 214.21455472 -418.4609375 216.453125 C-419.8181803 222.5408859 -419.8181803 222.5408859 -418.484375 228.4296875 C-417.01910797 230.38414315 -417.01910797 230.38414315 -415.29296875 232.16796875 C-406.19490723 242.59118271 -404.64559302 255.80439359 -405.30078125 269.00097656 C-406.3511669 280.97012105 -412.75493895 293.02214527 -421.49609375 301.2265625 C-430.42522761 308.2265625 -430.42522761 308.2265625 -433.49609375 308.2265625 C-432.6453125 309.50273438 -432.6453125 309.50273438 -431.77734375 310.8046875 C-431.41125 311.35447266 -431.04515625 311.90425781 -430.66796875 312.47070312 C-429.54199745 314.15778345 -428.40979994 315.8407033 -427.27734375 317.5234375 C-422.85365869 324.1823582 -419.01766527 330.5736811 -416.49609375 338.2265625 C-414.75440028 333.62670539 -413.0573989 329.01458555 -411.40234375 324.3828125 C-405.84448958 308.93202453 -399.66155012 293.99729865 -392.49609375 279.2265625 C-392.16828918 278.54775024 -391.84048462 277.86893799 -391.50274658 277.16955566 C-374.34401064 241.64719709 -374.34401064 241.64719709 -364.27832031 226.86181641 C-362.06643761 223.59125999 -359.90355166 220.28980173 -357.73828125 216.98828125 C-349.44236109 204.36876379 -341.13085433 191.79112387 -331.80224609 179.90185547 C-330.47785511 178.20316931 -329.18244129 176.48526982 -327.890625 174.76171875 C-320.99064167 165.6462149 -313.26204172 157.43159381 -305.35742188 149.18505859 C-302.77533794 146.46818067 -300.25889795 143.69483733 -297.74609375 140.9140625 C-293.52698635 136.28194006 -289.15275789 131.8470479 -284.6965332 127.44628906 C-281.99780749 124.76918139 -279.40100183 122.05546434 -276.93359375 119.1640625 C-270.81629957 112.00235224 -264.00830395 105.3982868 -256.84375 99.29296875 C-254.22406903 96.98712643 -251.68957934 94.60304216 -249.15161133 92.20800781 C-242.47898989 85.91367542 -235.67021352 79.94854811 -228.49609375 74.2265625 C-227.29389513 73.23510382 -226.09349308 72.24146421 -224.89453125 71.24609375 C-210.34505776 59.20162191 -194.99439245 48.47391424 -179.30859375 37.9765625 C-178.68555359 37.55849335 -178.06251343 37.14042419 -177.42059326 36.70968628 C-144.42737731 14.60678583 -108.75878727 -4.04192758 -69.49609375 -11.7734375 C-68.81111816 -11.91313965 -68.12614258 -12.0528418 -67.42041016 -12.19677734 C-44.85930925 -16.64784677 -18.61690116 -14.47077907 0 0 Z " fill="#394347" transform="translate(965.49609375,128.7734375)"/>
<path d="M0 0 C12.23069192 10.8759663 18.21122755 26.10505841 19.50390625 42.2265625 C20.95201063 77.12419417 13.23784493 105.7909765 0.93237305 138.06008911 C-3.85951489 150.63294975 -8.31730078 163.13364885 -11.49609375 176.2265625 C-11.97755859 178.13308594 -11.97755859 178.13308594 -12.46875 180.078125 C-17.45027658 200.60664849 -16.97372221 222.26912695 -12.99609375 242.9140625 C-10.56650155 255.92985617 -9.93280744 268.62533659 -9.87109375 281.8515625 C-9.85860596 282.76215424 -9.84611816 283.67274597 -9.83325195 284.6109314 C-9.42982287 320.3083539 -24.25502774 354.48121098 -47.49609375 381.2265625 C-48.25019531 382.103125 -49.00429688 382.9796875 -49.78125 383.8828125 C-53.77552638 388.4320398 -57.86444773 392.64056945 -62.5 396.53515625 C-63.82837775 397.66076792 -65.12877604 398.82027053 -66.3984375 400.01171875 C-84.74480622 417.16081965 -107.66450283 429.2201245 -130.49609375 439.2265625 C-130.00842529 439.54294678 -129.52075684 439.85933105 -129.01831055 440.18530273 C-100.16143824 458.9757452 -76.2944224 481.21336685 -68.37890625 515.84375 C-67.18074925 522.08410177 -67.20348041 528.266379 -67.24609375 534.6015625 C-67.23835938 535.74367188 -67.230625 536.88578125 -67.22265625 538.0625 C-67.24706799 548.80366677 -68.80720352 559.00187935 -71.87109375 569.2890625 C-72.11585449 570.11269287 -72.36061523 570.93632324 -72.61279297 571.78491211 C-75.78064256 581.86081901 -80.27561363 591.37310204 -84.69140625 600.94921875 C-91.44009589 615.8320457 -95.08437402 630.11010334 -94.99609375 646.5390625 C-94.98964844 647.80943359 -94.98320313 649.07980469 -94.9765625 650.38867188 C-94.77993701 660.52523327 -93.21351147 668.86798437 -89.49609375 678.2265625 C-88.80057376 680.07576784 -88.10805871 681.92610517 -87.41796875 683.77734375 C-85.74444545 688.24107586 -84.02411604 692.68397232 -82.26464844 697.11450195 C-78.23202372 708.19653386 -78.85106151 723.9902476 -83.3125 734.765625 C-83.70308594 735.57773437 -84.09367187 736.38984375 -84.49609375 737.2265625 C-84.83511719 738.01804687 -85.17414063 738.80953125 -85.5234375 739.625 C-89.8337982 748.61386609 -97.86346021 755.43942147 -107.06640625 759.09765625 C-154.52194879 774.71798859 -207.20971133 761.80125013 -250.80859375 740.3515625 C-272.77438135 729.1453513 -292.75187481 715.15660093 -310.953125 698.546875 C-312.73075943 696.92488598 -314.52091196 695.31655795 -316.3203125 693.71875 C-321.10701763 689.44793806 -325.64790359 685.17334227 -329.7734375 680.2578125 C-331.67675714 678.01353538 -333.67772563 675.87955153 -335.68359375 673.7265625 C-359.29768879 647.40003763 -378.20280135 613.9366915 -391.49609375 581.2265625 C-391.91133301 580.21883789 -392.32657227 579.21111328 -392.75439453 578.17285156 C-405.10716489 547.9011336 -414.32218488 516.68918867 -418.49609375 484.2265625 C-418.68655273 482.78651855 -418.68655273 482.78651855 -418.88085938 481.31738281 C-421.1497993 463.74260511 -420.19619041 447.00729522 -418.55859375 429.4140625 C-418.37384726 427.37309223 -418.18959898 425.33207679 -418.00585938 423.29101562 C-417.82726894 421.32548026 -417.6482476 419.35998398 -417.46875 417.39453125 C-417.38641617 416.49228317 -417.30408234 415.5900351 -417.21925354 414.66044617 C-416.86835823 410.8958247 -416.48833872 407.17517879 -415.92382812 403.43481445 C-415.16988704 397.55784022 -415.53547955 391.6344567 -415.6796875 385.7265625 C-415.72162189 383.03646491 -415.76157133 380.34640929 -415.79882812 377.65625 C-415.85811006 373.46565766 -415.92774687 369.27633723 -416.04467773 365.08691406 C-416.5498471 346.41811314 -414.76106426 330.64714398 -407.49609375 313.2265625 C-407.00868067 311.96084813 -406.52622487 310.69320184 -406.05102539 309.42285156 C-404.87675266 306.36116224 -403.62072935 303.3564627 -402.30859375 300.3515625 C-401.82648437 299.23918213 -401.344375 298.12680176 -400.84765625 296.98071289 C-395.87224127 285.72805296 -390.45543685 274.68817959 -384.99609375 263.6640625 C-384.56559723 262.78808411 -384.13510071 261.91210571 -383.69155884 261.00958252 C-377.38332998 248.21294546 -370.32628847 236.14780467 -362.49609375 224.2265625 C-361.61883479 222.8791867 -360.74186898 221.53161999 -359.86523438 220.18383789 C-357.43084525 216.45414365 -354.96930811 212.74309878 -352.49609375 209.0390625 C-352.06821564 208.39735107 -351.64033752 207.75563965 -351.19949341 207.09448242 C-345.00511674 197.81806698 -338.69095542 188.68148391 -331.80224609 179.90185547 C-330.47785511 178.20316931 -329.18244129 176.48526982 -327.890625 174.76171875 C-320.99064167 165.6462149 -313.26204172 157.43159381 -305.35742188 149.18505859 C-302.77533794 146.46818067 -300.25889795 143.69483733 -297.74609375 140.9140625 C-293.52698635 136.28194006 -289.15275789 131.8470479 -284.6965332 127.44628906 C-281.99780749 124.76918139 -279.40100183 122.05546434 -276.93359375 119.1640625 C-270.81629957 112.00235224 -264.00830395 105.3982868 -256.84375 99.29296875 C-254.22406903 96.98712643 -251.68957934 94.60304216 -249.15161133 92.20800781 C-242.47898989 85.91367542 -235.67021352 79.94854811 -228.49609375 74.2265625 C-227.29389513 73.23510382 -226.09349308 72.24146421 -224.89453125 71.24609375 C-210.34505776 59.20162191 -194.99439245 48.47391424 -179.30859375 37.9765625 C-178.68555359 37.55849335 -178.06251343 37.14042419 -177.42059326 36.70968628 C-144.42737731 14.60678583 -108.75878727 -4.04192758 -69.49609375 -11.7734375 C-68.81111816 -11.91313965 -68.12614258 -12.0528418 -67.42041016 -12.19677734 C-44.85930925 -16.64784677 -18.61690116 -14.47077907 0 0 Z " fill="#394347" transform="translate(965.49609375,128.7734375)"/>
<path d="M0 0 C9.67536325 9.70029975 13.18214119 25.00452886 13.375 38.1875 C13.38909912 38.8484668 13.40319824 39.50943359 13.41772461 40.19042969 C13.29074084 54.00754922 9.82667433 67.41838488 5.27349854 80.36190796 C4.47042438 82.6466422 3.68599994 84.9371088 2.90576172 87.22973633 C1.8167355 90.42780774 0.72262948 93.62405474 -0.37597656 96.81884766 C-7.57400268 117.79655009 -14.63590911 138.77992097 -19 160.5625 C-19.14260254 161.25730469 -19.28520508 161.95210937 -19.43212891 162.66796875 C-23.5844646 184.00712439 -22.47584511 209.28302889 -17.9765625 230.48046875 C-13.51721676 251.77721094 -12.20102983 274.6224478 -19 295.5625 C-19.24137695 296.32530273 -19.48275391 297.08810547 -19.73144531 297.87402344 C-27.18815029 320.91946259 -39.25011369 340.20661201 -56 357.5625 C-56.77730469 358.40296875 -57.55460937 359.2434375 -58.35546875 360.109375 C-93.19765597 396.76078802 -146.14091296 411.26265208 -195.19921875 412.78125 C-250.72128494 413.88874362 -308.10553546 399.11366688 -360.5 381.875 C-361.62776855 381.50656982 -362.75553711 381.13813965 -363.91748047 380.75854492 C-378.76902301 375.79347699 -378.76902301 375.79347699 -382 372.5625 C-382.07205511 370.87641034 -382.08386068 369.18749341 -382.0625 367.5 C-382.04896484 366.12134766 -382.04896484 366.12134766 -382.03515625 364.71484375 C-382.02355469 364.00457031 -382.01195312 363.29429687 -382 362.5625 C-377.54572558 362.49179723 -373.27431685 362.50845523 -368.85302734 363.0559082 C-364.39130931 363.56038673 -359.99123716 363.73838253 -355.50390625 363.765625 C-354.72145035 363.77263931 -353.93899445 363.77965363 -353.13282776 363.78688049 C-350.609326 363.8043233 -348.08605992 363.81073711 -345.5625 363.8125 C-344.26152374 363.81351212 -344.26152374 363.81351212 -342.93426514 363.81454468 C-313.51132146 363.77831036 -285.13052108 359.26215729 -256.96850586 350.70996094 C-255.98245361 350.41637695 -254.99640137 350.12279297 -253.98046875 349.8203125 C-253.11317139 349.5536377 -252.24587402 349.28696289 -251.35229492 349.01220703 C-248.81208839 348.52657544 -247.40102596 348.64573272 -245 349.5625 C-243.39453125 351.234375 -243.39453125 351.234375 -241.8125 353.3125 C-238.1334878 357.72731464 -234.19072677 360.196409 -229 362.5625 C-228.23042969 362.92730469 -227.46085938 363.29210937 -226.66796875 363.66796875 C-217.83599485 366.62920158 -207.93742311 365.04538712 -199.72265625 361.109375 C-191.13874785 356.23243422 -185.79152477 350.91530555 -181.82421875 341.88671875 C-181.06537474 338.8261678 -181.01515022 337.2757711 -181.359375 334.2421875 C-181.86088486 329.11487407 -182.16760735 324.35163719 -180 319.5625 C-174.73222057 314.42996183 -167.48972061 311.77459332 -160.84375 308.86376953 C-156.83364677 307.02878926 -153.1440879 304.816272 -149.4375 302.4375 C-148.79635254 302.03128418 -148.15520508 301.62506836 -147.49462891 301.20654297 C-139.71171684 296.19793693 -132.42422137 290.56307836 -125.4453125 284.48828125 C-124.5649231 283.72535767 -124.5649231 283.72535767 -123.66674805 282.94702148 C-122.53958202 281.96307859 -121.4207484 280.96948244 -120.31176758 279.96508789 C-117.18281149 277.21648541 -116.34673846 276.5625 -112 276.5625 C-109.7109375 277.62109375 -109.7109375 277.62109375 -107.375 279 C-106.59898437 279.45246094 -105.82296875 279.90492188 -105.0234375 280.37109375 C-104.35570312 280.76425781 -103.68796875 281.15742188 -103 281.5625 C-97.26159658 284.43170171 -87.09985959 283.2535515 -80.93359375 281.87890625 C-71.73342736 278.40904694 -63.34489683 271.94065731 -58.7421875 263.1640625 C-55.00970512 254.2635276 -54.24574243 244.39387343 -57.625 235.25 C-62.16728314 225.5777957 -67.72296809 218.2977796 -77.5625 213.6875 C-86.35776599 210.79614287 -96.98492714 211.51114076 -105.4375 215.12109375 C-115.47655815 220.76806396 -120.86263647 228.83396905 -124.69921875 239.5078125 C-125.11481783 241.72789417 -125.11481783 241.72789417 -124.640625 244.62890625 C-124.19975143 248.5747247 -124.17442549 251.66694993 -125 255.5625 C-128.24274847 259.57559642 -131.97116305 262.36352412 -136.19189453 265.28759766 C-138.94125323 267.22618139 -141.51099761 269.38390283 -144.125 271.5 C-152.31849243 277.82945092 -161.19577444 283.13914897 -170 288.5625 C-171.96264524 289.77929385 -173.92487412 290.9967595 -175.88671875 292.21484375 C-180.91999836 295.33800884 -185.95820494 298.4531029 -191 301.5625 C-191.78503906 301.08039063 -192.57007813 300.59828125 -193.37890625 300.1015625 C-202.94862346 294.34799019 -210.70331432 291.23510487 -222 292.5625 C-231.94747521 295.3168071 -240.24219886 300.92579829 -246 309.5625 C-249.51633489 315.97004358 -250.97743967 322.36421348 -252 329.5625 C-270.74503421 336.12745237 -290.26470898 339.65530801 -310 341.5625 C-310.65460205 341.64862549 -311.3092041 341.73475098 -311.98364258 341.82348633 C-327.79311906 343.85880011 -344.40541004 343.11560344 -360.25 341.75 C-361.54103638 341.64498169 -361.54103638 341.64498169 -362.8581543 341.5378418 C-368.256236 341.00267565 -374.24844805 340.33334127 -379 337.5625 C-379.82836914 335.58081055 -379.82836914 335.58081055 -380 333.5625 C-376.82890757 328.76300876 -370.91836195 327.16058377 -365.8125 325.0625 C-325.11954444 307.8087127 -285.41864211 286.19791171 -251.921875 257.08203125 C-249.08075683 254.63213657 -246.17959478 252.28036655 -243.25 249.9375 C-236.88990027 244.75829598 -230.80543416 239.24505688 -226 232.5625 C-225.09507812 232.86994141 -225.09507812 232.86994141 -224.171875 233.18359375 C-222.97304688 233.58771484 -222.97304688 233.58771484 -221.75 234 C-220.96109375 234.26683594 -220.1721875 234.53367187 -219.359375 234.80859375 C-211.0779159 237.45482158 -200.16767041 238.38480047 -192 234.9375 C-189.93787972 233.8418607 -189.93787972 233.8418607 -188 232.5625 C-187.30519531 232.13839844 -186.61039063 231.71429688 -185.89453125 231.27734375 C-179.04600787 226.66454845 -174.30480629 219.87631893 -171.48046875 212.12109375 C-170.92973006 209.1882983 -170.98238144 206.36942036 -171.00512695 203.39404297 C-170.98355382 193.846389 -170.98355382 193.846389 -167.8125 189.70703125 C-164.9804432 187.42171875 -162.09499921 185.47339661 -159 183.5625 C-157.52592328 182.45820885 -156.06636373 181.33416111 -154.625 180.1875 C-153.89796875 179.62289062 -153.1709375 179.05828125 -152.421875 178.4765625 C-136.26378158 165.70645641 -121.4764651 151.77719765 -110 134.5625 C-109.36835937 134.7790625 -108.73671875 134.995625 -108.0859375 135.21875 C-96.05519341 138.96318908 -84.01373664 139.06936832 -72.6328125 133.37890625 C-66.37798321 129.66181073 -62.62333761 124.79778288 -59 118.5625 C-58.63777344 117.96050781 -58.27554687 117.35851562 -57.90234375 116.73828125 C-54.44193737 109.57604479 -54.45799657 99.15955204 -56.55517578 91.54736328 C-59.93704251 82.26200035 -65.75512533 74.69412097 -74.65625 70.23046875 C-84.61063766 66.08768683 -94.26375551 65.00020789 -104.65234375 68.5234375 C-114.71899377 72.97889325 -121.19314883 81.24929149 -125.0859375 91.3203125 C-127.30661589 99.19707773 -126.6485191 106.01840919 -123.75 113.5625 C-122.9375 116.546875 -122.9375 116.546875 -123 119.5625 C-125.71192341 124.01457426 -129.18966291 127.30805301 -133.0390625 130.78808594 C-135.07259063 132.62818584 -137.05409484 134.51360733 -139.03125 136.4140625 C-142.59283651 139.82284304 -146.19745828 143.18200853 -149.81542969 146.53076172 C-151.97571922 148.5399179 -154.11926413 150.56539265 -156.2578125 152.59765625 C-177.28995145 172.5625 -177.28995145 172.5625 -182 172.5625 C-183.92828901 171.49408505 -185.82010759 170.35910343 -187.6875 169.1875 C-197.02447113 163.62576629 -205.95916221 162.09916555 -216.578125 164.75390625 C-225.50842915 167.73547554 -232.81531886 172.63298766 -238 180.5625 C-242.56070906 189.78727698 -243.65347696 200.09767418 -240.9375 210.0625 C-239.96638097 213.68801104 -239.86777714 215.06878375 -241 218.5625 C-242.79296875 220.5625 -242.79296875 220.5625 -245.1875 222.5625 C-246.09757813 223.34109375 -247.00765625 224.1196875 -247.9453125 224.921875 C-248.44063477 225.34404297 -248.93595703 225.76621094 -249.44628906 226.20117188 C-251.06612498 227.62043728 -252.62563713 229.08721676 -254.1796875 230.578125 C-262.9378821 238.97535558 -272.21008294 246.40337318 -282 253.5625 C-282.67901367 254.06104492 -283.35802734 254.55958984 -284.05761719 255.07324219 C-307.60964881 272.27518343 -332.73710091 287.37333788 -359 300.0625 C-359.77690186 300.44253174 -360.55380371 300.82256348 -361.35424805 301.21411133 C-366.63202216 303.68515928 -366.63202216 303.68515928 -370 302.5625 C-366.74732899 292.85891339 -362.90597749 283.68712864 -358.375 274.5 C-357.75180099 273.2258231 -357.12875662 271.95157054 -356.50585938 270.67724609 C-354.68574095 266.96468432 -352.84560902 263.2624577 -351 259.5625 C-350.50661133 258.57169434 -350.01322266 257.58088867 -349.50488281 256.56005859 C-334.04551461 225.73484861 -315.04065794 196.65937872 -292.53125 170.52734375 C-290.21141634 167.81013118 -287.97556534 165.04441319 -285.75 162.25 C-281.30646967 156.78349866 -276.51697547 151.67489653 -271.66699219 146.57104492 C-268.33198981 143.06143275 -265.05904295 139.51401931 -261.84765625 135.890625 C-256.64660047 130.08919153 -251.1700947 124.58168418 -245.65209961 119.08422852 C-243.9329133 117.37042767 -242.21917417 115.65130918 -240.50585938 113.93164062 C-235.35370598 108.77641704 -230.1930368 103.6981311 -224.64379883 98.96557617 C-222.32249163 96.98420792 -220.10680915 94.89360821 -217.875 92.8125 C-213.19716264 88.54171202 -208.33636207 84.60775569 -203.3269043 80.73486328 C-199.35251649 77.65391742 -195.49762412 74.46857202 -191.6875 71.1875 C-176.92931296 58.5774291 -161.07304384 47.42074668 -145 36.5625 C-144.19336914 36.01706543 -143.38673828 35.47163086 -142.55566406 34.90966797 C-109.18381134 12.56485115 -39.90764384 -28.20605899 0 0 Z " fill="#FEFEFD" transform="translate(949,146.4375)"/>
<path d="M0 0 C0.76634766 0.19867676 1.53269531 0.39735352 2.32226562 0.60205078 C63.07075461 16.80893184 126.68551595 60.3092717 170.234375 105.23046875 C171.96369618 106.96361586 173.75697668 108.54345925 175.625 110.125 C184.14524536 117.46422125 192.1650476 125.63209139 199.4296875 134.2109375 C201.20465381 136.2331628 203.08299023 138.11214627 205 140 C208.21434731 143.1711603 211.21750963 146.45582753 214.16015625 149.87890625 C216.19508819 152.22491058 218.28290967 154.5173645 220.375 156.8125 C224.31270715 161.17734826 228.06571174 165.66383784 231.76171875 170.234375 C233.21100575 172.02511706 234.67130102 173.80702855 236.14453125 175.578125 C253.33810735 196.27237515 267.66320653 218.66768183 281 242 C281.52029785 242.9060498 282.0405957 243.81209961 282.57666016 244.74560547 C289.96951927 257.71476629 296.50105235 271.01468631 302.75 284.5625 C303.1065567 285.32920013 303.4631134 286.09590027 303.83047485 286.88583374 C304.85076681 289.08716173 305.85731735 291.29422767 306.859375 293.50390625 C307.1629039 294.15716888 307.4664328 294.81043152 307.77915955 295.48348999 C309.67627903 299.72698813 310.54176085 303.42608074 311 308 C306.10204043 307.44579662 302.20001358 305.87678962 297.875 303.625 C296.83956055 303.09434937 296.83956055 303.09434937 295.78320312 302.55297852 C293.51520703 301.38143253 291.25673182 300.19308871 289 299 C288.23848633 298.59990723 287.47697266 298.19981445 286.69238281 297.78759766 C256.01131733 281.57668008 225.87907091 262.2628868 200.54296875 238.39453125 C198.30259447 236.28493151 196.02124555 234.25479855 193.6875 232.25 C192.45766018 231.16743092 191.22848228 230.08410936 190 229 C189.31421875 228.41605469 188.6284375 227.83210937 187.921875 227.23046875 C186.07465151 225.56142233 184.44587089 224.0270087 183 222 C183 218.68190119 183.53996927 216.92006145 185 214 C185.94402604 202.64778808 185.63558632 193.70874956 179 184 C178.54367187 183.31550781 178.08734375 182.63101563 177.6171875 181.92578125 C172.61414952 175.33606551 164.88303869 171.14457823 157 169 C144.75163219 167.84118852 136.81324289 170.05892576 127 177 C126.34 177.33 125.68 177.66 125 178 C112.84440205 168.17629227 100.98789821 158.05717105 89.53710938 147.41943359 C87.90377072 145.9111377 86.257832 144.41753192 84.609375 142.92578125 C78.69230601 137.55319688 73.12577199 132.15092639 68 126 C67.34 125.34 66.68 124.68 66 124 C66.48902321 122.00897693 66.97833895 120.01802544 67.46875 118.02734375 C69.17500501 108.30419938 69.57529061 97.48413788 64 89 C63.56429687 88.30648437 63.12859375 87.61296875 62.6796875 86.8984375 C56.59653081 78.02301216 48.45005238 73.23509563 38 71 C27.92150168 70.00358444 19.4588406 72.26440189 11.1875 78.125 C4.56333962 83.65700491 0.9522817 90.67850968 -1 99 C-1.76865536 107.84847451 -1.98231872 116.30285745 3 124 C3.44730469 124.69480469 3.89460938 125.38960937 4.35546875 126.10546875 C9.86688833 133.98103613 16.47849204 139.75890039 26 142 C34.79156194 142.84315626 42.76509789 142.25520837 51 139 C51.27070313 139.47566406 51.54140625 139.95132813 51.8203125 140.44140625 C62.64735089 158.0434477 79.82190876 171.57156429 96 184 C97.2137411 184.93724179 98.42728404 185.87474025 99.640625 186.8125 C105.29595473 191.35409691 105.29595473 191.35409691 111.33984375 195.31640625 C113.93715633 197.95038677 113.46110997 200.94648082 113.4375 204.4375 C113.74768685 214.91281758 116.73998978 223.57331728 124.1171875 231.25390625 C132.35228101 238.89101579 139.50654429 242.6059351 150.89453125 242.375 C155.12825026 241.86375846 158.74045563 240.49417363 162.625 238.77734375 C165.33692136 237.88972475 166.41118731 237.83931332 169 239 C170.640625 240.6015625 170.640625 240.6015625 172.25 242.625 C175.8389881 246.90301324 179.73110195 250.41641 184 254 C184.93585938 254.81210937 185.87171875 255.62421875 186.8359375 256.4609375 C225.30387182 289.73788637 270.70354681 315.51383734 317.6953125 334.609375 C321 336 321 336 322 337 C322.04063832 338.66617115 322.042721 340.33388095 322 342 C283.34771919 353.57253917 233.53965427 348.49155292 196 335 C193 333 193 333 192.4453125 330.75 C192.33960938 329.8425 192.23390625 328.935 192.125 328 C190.6325359 318.7297352 186.66195127 310.66018022 179 305 C168.1194773 298.76239814 157.3694089 295.69643832 144.93359375 298.75390625 C140.18726336 300.60171426 136.20787655 303.13044522 132 306 C94.43882497 283.8558153 94.43882497 283.8558153 81.921875 272.53125 C79.0464165 269.93318359 79.0464165 269.93318359 75.765625 267.84375 C72.66196051 265.73262796 70.29096175 263.97915579 68 261 C67.4017044 257.10674313 67.56122656 253.6422086 67.8515625 249.71875 C68.18740782 241.30494101 64.2779797 234.31799713 58.98046875 228.00390625 C51.55772184 220.49331618 42.96706647 216.91710418 32.5 216.625 C22.25884416 216.9107997 13.98321209 220.38217491 6.46484375 227.44140625 C-1.5374259 236.4225468 -2.67521574 246.36229314 -2.17480469 257.89404297 C-1.45909793 266.51651016 2.65542313 273.31476151 9 279 C18.603834 286.51240674 27.95857175 288.27553705 40 287 C46.09337812 285.52567848 51.4292833 282.81765236 57 280 C58.14662109 281.10794922 58.14662109 281.10794922 59.31640625 282.23828125 C71.71926466 294.05417311 85.16360597 303.50252613 100 312 C100.89283691 312.51336914 101.78567383 313.02673828 102.70556641 313.55566406 C108.79396131 317.05431853 114.89259918 320.53463907 121 324 C120.94199219 325.00417969 120.88398438 326.00835937 120.82421875 327.04296875 C120.3676808 338.40196808 121.8470233 348.23581238 129.1875 357.4375 C136.33120222 364.79909291 145.1365896 368.99439475 155.375 369.25 C167.65382336 368.96444597 176.2902341 364.61560627 185 356 C185.66 355.01 186.32 354.02 187 353 C187.99422974 353.27372437 187.99422974 353.27372437 189.00854492 353.55297852 C207.18203763 358.53575026 225.35570188 363.15191169 244 366 C245.14009521 366.17789063 245.14009521 366.17789063 246.30322266 366.359375 C258.56941534 368.17538766 270.87785083 368.17850524 283.25 368.1875 C284.06735626 368.18858765 284.88471252 368.18967529 285.72683716 368.1907959 C288.09402425 368.1904391 290.46097782 368.18122968 292.828125 368.16796875 C293.53269333 368.16675522 294.23726166 368.16554169 294.96318054 368.16429138 C299.72883735 368.12004699 304.28594157 367.6218832 309 367 C310.42582924 366.93190113 311.85384502 366.89044871 313.28125 366.90234375 C313.97734375 366.90556641 314.6734375 366.90878906 315.390625 366.91210938 C316.08671875 366.92048828 316.7828125 366.92886719 317.5 366.9375 C318.22703125 366.94201172 318.9540625 366.94652344 319.703125 366.95117188 C321.46878681 366.96278807 323.2344053 366.98071559 325 367 C325 370.3 325 373.6 325 377 C316.98863267 381.27836204 308.79177586 384.36035905 300.1875 387.1875 C299.12894806 387.53825089 299.12894806 387.53825089 298.04901123 387.89608765 C237.02489835 408.04517417 169.29598242 424.02585048 105 414 C104.06397949 413.85546387 103.12795898 413.71092773 102.16357422 413.56201172 C62.88357053 407.28971405 27.66133666 388.31907021 -1 361 C-1.85335937 360.21109375 -2.70671875 359.4221875 -3.5859375 358.609375 C-18.63943235 344.26819064 -29.32955123 326.01716496 -36.5 306.625 C-36.82637451 305.74642334 -37.15274902 304.86784668 -37.48901367 303.96264648 C-41.26671819 293.20870721 -42.34800082 282.66099457 -42.25 271.3125 C-42.24395752 270.1783667 -42.23791504 269.0442334 -42.23168945 267.87573242 C-42.07969817 254.90304614 -40.51588989 242.5329026 -37.78125 229.85546875 C-37.39453125 227.94701172 -37.39453125 227.94701172 -37 226 C-36.73968994 224.730354 -36.73968994 224.730354 -36.47412109 223.43505859 C-34.89907707 215.04565368 -34.59957793 206.75939427 -34.625 198.25 C-34.62631424 197.16851685 -34.62631424 197.16851685 -34.62765503 196.06518555 C-34.75447275 164.20716903 -44.7982144 134.7525519 -55.1875 104.9375 C-65.09218617 76.49589762 -65.09218617 76.49589762 -68 63 C-68.19053955 62.1632373 -68.3810791 61.32647461 -68.57739258 60.46435547 C-71.02633022 46.18383752 -70.95041603 28.94347448 -64 16 C-63.60425781 15.21109375 -63.20851563 14.4221875 -62.80078125 13.609375 C-57.77911871 4.60041231 -50.65554967 0.8833571 -41 -2 C-28.29277919 -5.60968764 -12.52811261 -3.24878596 0 0 Z " fill="#FEFEFE" transform="translate(133,142)"/>
<path d="M0 0 C0.51884766 0.1556543 1.03769531 0.31130859 1.57226562 0.47167969 C3.27730792 0.98319238 4.98239181 1.4945664 6.6875 2.00585938 C9.08361838 2.72497745 11.47943402 3.44506267 13.875 4.16601562 C43.70684919 13.13848158 73.29974726 21.52204431 104 27 C105.26956543 27.22961426 106.53913086 27.45922852 107.84716797 27.69580078 C140.05265901 33.47733318 172.67628042 38.00181133 205.33984375 33.45703125 C228.22736626 30.59914423 251.30962111 36.54004145 270 50 C288.81847841 64.76348526 304.16186701 84.56596137 307.53125 108.671875 C310.22765208 131.48915627 303.9579238 150.31489119 294.5625 170.6875 C289.87583902 180.87872117 286.21192921 191.25918034 283 202 C282.63777344 203.16144531 282.27554687 204.32289063 281.90234375 205.51953125 C275.35874953 230.20257734 281.5784961 253.50920199 290.47021484 276.47436523 C294.8162992 287.74171666 298.36396956 298.14355376 293.9609375 309.8984375 C291.12434457 316.10204319 287.09552408 319.15190776 281 321.8984375 C242.2931043 336.11112577 193.91197776 320.81844456 158.11865234 304.50561523 C126.9986606 289.93175642 99.14504631 268.28799484 77 242 C76.26652344 241.17886719 75.53304687 240.35773438 74.77734375 239.51171875 C67.07937852 230.69138775 60.99066863 221.03691622 55 211 C54.20456787 209.6706543 54.20456787 209.6706543 53.39306641 208.31445312 C25.60596279 161.48169263 8.734522 108.78535071 1 55 C0.89469971 54.2894043 0.78939941 53.57880859 0.6809082 52.84667969 C0.03414216 48.1781739 -0.10447684 43.70140641 -0.0625 39 C-0.05798828 38.32066406 -0.05347656 37.64132812 -0.04882812 36.94140625 C-0.0372283 35.29423126 -0.01930199 33.64710274 0 32 C4.62850262 34.26282351 8.1157821 36.90785266 11.875 40.4375 C17.20837814 45.42465055 22.86084141 49.83145972 28.72216797 54.18139648 C37.97453873 61.0982704 45.15189434 67.83471047 51.3125 77.6875 C51.95783691 78.70223389 52.60317383 79.71696777 53.26806641 80.76245117 C55.20170749 83.82806704 57.10730942 86.90896068 59 90 C59.51965332 90.84723633 60.03930664 91.69447266 60.57470703 92.56738281 C70.41572873 108.80128487 78.80293399 125.88940746 87.027771 142.98431396 C87.95547698 144.90769208 88.89218382 146.82644291 89.83056641 148.74462891 C91.41337872 152.01870294 92.93657472 155.31274867 94.4375 158.625 C94.89914551 159.57093018 95.36079102 160.51686035 95.83642578 161.49145508 C96.96962651 164.10306527 97.78766876 166.15995887 98 169 C96.83667827 171.50843759 95.50145381 173.24134759 93.61474609 175.25463867 C87.65110122 181.70067696 87.6401715 191.09566273 87.7265625 199.36328125 C88.48767381 209.48606165 93.25347088 217.89058607 100.796875 224.59765625 C108.76266607 230.64249328 117.29466048 230.78236921 127 230 C136.19441302 228.09021521 142.91779386 223.47434494 148.22265625 215.7734375 C148.80917969 214.85820313 149.39570312 213.94296875 150 213 C154.06288884 213.47590643 158.12523557 213.95629512 162.1875 214.4375 C163.91323242 214.63956055 163.91323242 214.63956055 165.67382812 214.84570312 C166.78564453 214.97783203 167.89746094 215.10996094 169.04296875 215.24609375 C170.06414795 215.36654053 171.08532715 215.4869873 172.13745117 215.61108398 C177.67091545 216.36288003 177.67091545 216.36288003 180 217 C181.37109375 219.44140625 181.37109375 219.44140625 182.4375 222.5625 C186.35261937 232.74906058 191.12695263 238.18233322 201 243 C209.9860507 246.66098362 219.6780978 245.8993727 228.52734375 242.2578125 C236.94316471 237.97677877 241.80877538 231.0030825 244.8125 222.1875 C247.39636967 212.47571399 246.4096062 204.0109344 242 195 C237.8940911 187.97865282 232.29156609 182.8512638 224.8125 179.625 C214.73235013 177.97251642 204.44837959 178.00716336 195.55859375 183.51171875 C191.67016848 186.36237649 189.06980062 188.63333201 187 193 C185.875 194.74609375 185.875 194.74609375 184 196 C178.24378559 196.45280566 172.70259715 195.79100949 167 195 C166.32050293 194.90944336 165.64100586 194.81888672 164.94091797 194.72558594 C161.27945778 194.22734054 157.63716076 193.65152619 154 193 C153.78085937 192.16597656 153.56171875 191.33195313 153.3359375 190.47265625 C150.39542139 180.03741007 146.34095731 171.09112127 137 165 C131.67136426 162.10863591 126.70977463 160.81508424 120.66796875 160.39453125 C119.60215576 160.3169458 118.53634277 160.23936035 117.43823242 160.15942383 C116.63361572 160.10681396 115.82899902 160.0542041 115 160 C114.83097168 159.42483643 114.66194336 158.84967285 114.48779297 158.25708008 C107.78532737 135.89577623 98.23940361 114.50961223 85.75634766 94.74438477 C84.78546237 93.19436415 83.8838263 91.60125988 83 90 C83.33 89.34 83.66 88.68 84 88 C84.90234375 88.52207031 85.8046875 89.04414062 86.734375 89.58203125 C108.44740171 101.7833006 132.08558266 109.41865591 156 116 C155.96519531 114.99839844 155.93039062 113.99679687 155.89453125 112.96484375 C155.86636836 111.62241277 155.83907091 110.27996344 155.8125 108.9375 C155.77769531 107.62652344 155.74289062 106.31554687 155.70703125 104.96484375 C156.03472443 100.5300627 157.04840227 97.93905159 159 94 C158.29206299 93.79955078 157.58412598 93.59910156 156.85473633 93.39257812 C104.52156585 78.48009727 57.18359625 53.78983727 16.51416016 17.35107422 C14.53211551 15.58251004 12.51546124 13.85529081 10.5 12.125 C2.92288334 5.46178995 2.92288334 5.46178995 0 2 C0 1.34 0 0.68 0 0 Z " fill="#FEFEFD" transform="translate(568,545)"/>
<path d="M0 0 C-4.07663083 9.62966309 -15.0175678 16.70473973 -23 23 C-24.05905035 23.84969163 -25.11762883 24.69997167 -26.17578125 25.55078125 C-59.3727196 52.10444413 -114.17855119 93 -159 93 C-160.2109375 91.390625 -160.2109375 91.390625 -161.375 89.25 C-165.53956857 82.209896 -172.05556171 78.33709773 -179.6875 75.75 C-191.48206977 73.24536163 -201.54406837 75.58070579 -211.8125 81.625 C-219.41582647 87.03845964 -223.35633838 96.00095262 -225 105 C-226.1001505 115.65006808 -223.68503466 125.5432485 -217 134 C-211.22824145 140.39124049 -203.53354429 144.73923876 -194.8984375 145.44921875 C-183.62730855 145.93773111 -174.5500397 144.25052812 -165.625 136.9375 C-160.16457539 131.68509156 -156.66043849 125.40842691 -155.53125 117.87109375 C-153.7048685 114.44662844 -153.04755086 114.35481179 -149.46875 113.234375 C-147.48436761 112.71912055 -145.49419622 112.22585928 -143.5 111.75 C-125.32965006 106.9333146 -107.69779139 100.41446906 -91.07421875 91.59375 C-88.41913941 90.2172921 -85.79703502 89.0495441 -83 88 C-84.40615835 92.60516859 -86.2992763 96.79638978 -88.5 101.0625 C-89.22130187 102.49155737 -89.94128926 103.92127875 -90.66015625 105.3515625 C-91.04059082 106.10727539 -91.42102539 106.86298828 -91.81298828 107.64160156 C-92.20470215 108.41987305 -92.59641602 109.19814453 -93 110 C-93.59723877 111.18287598 -93.59723877 111.18287598 -94.20654297 112.38964844 C-100.92408293 125.7819585 -106.29184307 139.39811518 -111.10546875 153.58422852 C-111.94495147 155.85133593 -112.72760841 157.94224682 -114 160 C-116.72265625 160.46875 -116.72265625 160.46875 -120.0625 160.5 C-129.58461241 160.97191086 -137.051541 164.43429509 -144 171 C-149.52011495 177.43145468 -152.23646128 185.08845332 -155 193 C-158.33194499 193.50954907 -161.66573634 194.00587014 -165 194.5 C-165.93457031 194.64308594 -166.86914062 194.78617188 -167.83203125 194.93359375 C-173.26524761 195.73147867 -178.51454633 196.49700419 -184 196 C-185.7421875 194.49609375 -185.7421875 194.49609375 -186.875 192.4375 C-191.20191902 185.80602628 -198.25467379 180.87550846 -205.8125 178.4375 C-215.65358312 176.46928338 -223.62213639 178.35550651 -232.1875 183.25 C-239.51063346 188.13208897 -243.68255058 195.6255805 -246 204 C-247.12091517 214.88330423 -245.48877421 224.2115277 -239.3125 233.3125 C-234.10902492 239.6956042 -227.2213476 244.04507033 -219 245 C-209.1497211 245.96247 -200.39472559 244.12030035 -192.625 237.75 C-187.632302 232.95129231 -184.47796769 227.8225585 -182.36328125 221.2421875 C-181.97523315 220.04505127 -181.97523315 220.04505127 -181.5793457 218.82373047 C-181.38816162 218.22189941 -181.19697754 217.62006836 -181 217 C-177.48026001 216.49209841 -173.95905958 215.99511477 -170.4375 215.5 C-169.44685547 215.35691406 -168.45621094 215.21382812 -167.43554688 215.06640625 C-156.23314946 213.50328103 -156.23314946 213.50328103 -152 214 C-150.1015625 215.7578125 -150.1015625 215.7578125 -148.625 218.125 C-145.08250329 223.16198751 -141.34617641 226.02387134 -136 229 C-135.28972656 229.41378906 -134.57945312 229.82757812 -133.84765625 230.25390625 C-126.81767933 233.90237528 -119.72156229 234.12058412 -112.0703125 232.3046875 C-101.76544826 228.90779319 -95.24404543 223.45888568 -90 214 C-89.65839844 213.40832031 -89.31679688 212.81664062 -88.96484375 212.20703125 C-85.08649623 204.03544321 -85.83749535 192.36251395 -88.625 184 C-90.39805517 179.72418464 -92.74894886 176.40062542 -95.92578125 173.046875 C-97.58852332 169.87859556 -96.66225527 167.45406743 -96 164 C-95.24917187 161.86060619 -94.41649119 159.74863905 -93.515625 157.66796875 C-92.99943604 156.47059082 -92.48324707 155.27321289 -91.95141602 154.03955078 C-91.38523027 152.75511338 -90.81806655 151.47110669 -90.25 150.1875 C-89.96099823 149.52860779 -89.67199646 148.86971558 -89.37423706 148.19085693 C-57.07817986 74.63419769 -57.07817986 74.63419769 -31.98046875 57.15234375 C-28.72600706 54.80213616 -25.67384321 52.29491279 -22.625 49.6875 C-21.82050415 49.00059082 -21.82050415 49.00059082 -20.99975586 48.29980469 C-18.7301788 46.35551454 -16.46738174 44.40342825 -14.20507812 42.45068359 C-12.43142108 40.92188287 -10.6533163 39.39837583 -8.875 37.875 C-8.33053223 37.40151123 -7.78606445 36.92802246 -7.22509766 36.44018555 C-4.81073138 34.37328968 -3.04975747 33.01658582 0 32 C1.98936635 101.73834273 -32.15701149 194.14040079 -80 245 C-91.62092752 257.17145092 -103.27458993 269.18157547 -117 279 C-118.07477571 279.81265131 -119.14766465 280.62780338 -120.21875 281.4453125 C-160.3052739 311.60480489 -216.23209596 331.98929806 -266.74609375 325.4609375 C-277.24769524 323.82381475 -285.86541754 321.53554867 -292.625 312.9921875 C-296.82445214 306.90775401 -296.67928377 300.15397586 -296 293 C-294.12973167 284.39900551 -290.59415639 276.19142515 -287.51098633 267.96557617 C-273.61250803 230.45820598 -283.4558355 196.05069776 -299.26733398 161.19482422 C-301.94034103 155.26239537 -304.27327036 149.28290239 -306 143 C-306.17587646 142.38318359 -306.35175293 141.76636719 -306.53295898 141.13085938 C-308.28572689 134.31618503 -308.33191736 127.63078368 -308.3125 120.625 C-308.32861328 119.47 -308.34472656 118.315 -308.36132812 117.125 C-308.36557046 109.60758222 -307.39814329 103.12076676 -305 96 C-304.64679688 94.93007813 -304.29359375 93.86015625 -303.9296875 92.7578125 C-294.39536392 68.95731587 -273.34622479 49.22861935 -250.09765625 39.09375 C-234.96088843 33.74911571 -219.02952306 31.58091271 -203.09936523 33.71899414 C-136.89427478 42.58072912 -66.10226231 22.29096459 -4.15014648 0.66748047 C-2 0 -2 0 0 0 Z " fill="#FDFEFE" transform="translate(457,545)"/>
<path d="M0 0 C6.55304376 2.56642858 12.24937649 5.81404268 17.9375 9.9375 C18.74445313 10.52144531 19.55140625 11.10539063 20.3828125 11.70703125 C46.27166732 31.47745897 65.02887907 59.95957452 80.9375 87.9375 C81.28522461 88.53965332 81.63294922 89.14180664 81.99121094 89.76220703 C97.56722481 116.86447118 109.85077461 149.82959034 113.9375 180.9375 C114.50726563 180.77507812 115.07703125 180.61265625 115.6640625 180.4453125 C121.32849488 179.18006128 127.3012689 179.78135003 132.9375 180.9375 C133.04126953 180.29425781 133.14503906 179.65101563 133.25195312 178.98828125 C142.49406999 124.77301832 169.50345045 71.92986089 206.578125 31.53125 C208.22197082 29.72410823 209.83449404 27.88818622 211.421875 26.03125 C222.14076121 13.6080468 238.89991168 -0.95617844 255.9609375 -2.30078125 C267.2010242 -2.5496876 267.2010242 -2.5496876 271.9375 1.9375 C275.48627766 5.90528996 275.44600762 8.96259455 275.28125 14.125 C274.47654145 20.70897904 271.02013061 25.71484461 266.25390625 30.203125 C259.257089 35.44188867 248.36957682 41.73903573 239.3984375 40.62109375 C234.71987389 40.10052118 232.05559725 40.06444293 228.24609375 43.0390625 C225.83699872 45.6410254 223.59391147 48.27758692 221.41162109 51.06787109 C219.8838438 53.0055522 218.30409161 54.88865452 216.70703125 56.76953125 C209.43706976 65.40140882 202.92146425 74.37370828 196.9375 83.9375 C196.55110352 84.5547998 196.16470703 85.17209961 195.76660156 85.80810547 C193.07630766 90.13895998 190.48653101 94.52231926 187.9375 98.9375 C187.28136719 100.05898438 186.62523437 101.18046875 185.94921875 102.3359375 C173.14710309 125.16937024 164.66557121 150.85817614 159.45263672 176.44042969 C158.98865502 178.68953148 158.48437587 180.92549222 157.97265625 183.1640625 C156.61541345 189.2518234 156.61541345 189.2518234 157.94921875 195.140625 C159.41448578 197.09508065 159.41448578 197.09508065 161.140625 198.87890625 C170.23868652 209.30212021 171.78800073 222.51533109 171.1328125 235.71191406 C170.08242685 247.68105855 163.6786548 259.73308277 154.9375 267.9375 C146.00836614 274.9375 146.00836614 274.9375 142.9375 274.9375 C144.98310904 278.01287141 147.03533548 281.08049032 149.12109375 284.12890625 C161.48512978 302.4557206 162.19561182 319.06003724 162.25 340.5625 C162.25295074 341.59205811 162.25590149 342.62161621 162.25894165 343.68237305 C162.27115125 362.59521891 160.90514286 381.15374324 158.73048401 399.927948 C158.1305117 405.11350593 157.60340003 410.3000998 157.14453125 415.5 C155.84602274 430.16772152 154.11461057 444.64398324 151.59130859 459.15136719 C150.81038878 463.67358693 150.05577786 468.19995737 149.30078125 472.7265625 C141.32616463 520.39981922 141.32616463 520.39981922 135.375 543 C135.09398437 544.07757568 134.81296875 545.15515137 134.5234375 546.26538086 C132.8981831 552.23015901 131.0882819 557.59867511 127.9375 562.9375 C125 564.25 125 564.25 121.9375 563.9375 C110.49351425 556.30817617 108.60779654 532.32309546 105.9375 519.9375 C104.54917713 512.54015115 103.53742323 505.08839106 102.48388672 497.63769531 C101.52326604 491.13225876 100.42445755 484.64984611 99.33319092 478.16525269 C98.93846695 475.81824942 98.54630229 473.47083118 98.15478516 471.12329102 C97.04809739 464.49623933 95.93170943 457.87149751 94.76953125 451.25390625 C91.16104085 430.57700393 89.12885013 409.77357523 87.3125 388.875 C87.2499704 388.16040619 87.1874408 387.44581238 87.12301636 386.70956421 C85.63737919 369.59846738 84.71813555 352.52847454 84.64233398 335.34936523 C84.63072054 333.52409166 84.61012447 331.69885442 84.58081055 329.8737793 C84.35125324 315.46553126 86.02627761 303.62584449 92.8125 290.6875 C93.15474609 290.01783203 93.49699219 289.34816406 93.84960938 288.65820312 C96.52627848 283.50922885 99.5028841 278.62106714 102.9375 273.9375 C102.20402344 273.67324219 101.47054687 273.40898437 100.71484375 273.13671875 C90.30735424 268.64290823 83.25907494 259.87107059 78.97265625 249.671875 C74.44541557 237.71312604 74.019471 223.64654295 78.6640625 211.65625 C81.27045988 206.09167154 84.12438233 200.84359807 88.375 196.375 C90.16625116 193.58064819 90.05431682 193.00538309 89.6328125 189.84375 C89.52606201 189.03929443 89.41931152 188.23483887 89.30932617 187.40600586 C82.56712317 142.64539223 64.12399313 97.51878637 35.21484375 62.48681641 C33.97554138 60.98364117 32.75310024 59.46661393 31.53125 57.94921875 C30.04756047 56.11239078 28.54449146 54.29099253 27.01953125 52.48828125 C24.9375 49.9375 24.9375 49.9375 23.19921875 47.29296875 C21.25800769 44.55977802 19.75386657 42.77764135 16.9375 40.9375 C13.36459689 40.38059 10.03885063 40.19688438 6.4375 40.171875 C-4.26728546 40.05958704 -13.48533709 35.46973902 -21.0625 27.9375 C-26.2795879 21.4326499 -28.64501302 16.38393878 -28.0625 7.9375 C-26.77139797 4.27937758 -25.40089007 2.2672134 -22.625 -0.4375 C-15.03913033 -3.89772125 -7.71914386 -2.55892585 0 0 Z " fill="#2767B9" transform="translate(389.0625,162.0625)"/>
<path d="M0 0 C8.02384772 5.7414458 13.20762244 12.99786731 16.3125 22.3125 C16.43617664 25.03338607 16.5 27.7166328 16.5 30.4375 C16.50644531 31.20505615 16.51289063 31.9726123 16.51953125 32.76342773 C16.50536589 36.93911052 16.19119157 40.39289085 14.8125 44.375 C13.88484115 48.17622153 13.88484115 48.17622153 15.71484375 50.34375 C17.82677601 52.45162865 20.05250646 54.36542864 22.3125 56.3125 C23.50396946 57.64489596 24.67186849 58.99883205 25.8125 60.375 C28.625637 63.63496636 31.60865579 66.42753407 34.890625 69.20703125 C37.4220916 71.40777399 39.8656555 73.68385921 42.30932617 75.98095703 C48.7635035 82.0472068 55.36815356 87.80669925 62.3125 93.3125 C64.20837439 94.83328215 66.10420945 96.35411333 68 97.875 C69.43699468 99.02146699 70.87429506 100.1675516 72.3125 101.3125 C72.869375 100.91417969 73.42625 100.51585937 74 100.10546875 C84.0674812 93.1160519 91.83375341 90.98551672 104.3125 92.3125 C115.00100251 95.02863711 122.98819148 101.17003536 128.75 110.5 C129.64645327 112.08092471 130.50291974 113.6853764 131.3125 115.3125 C131.87517578 116.42818359 131.87517578 116.42818359 132.44921875 117.56640625 C134.81115386 125.07971114 134.76990737 136.07797061 131.75 143.375 C124.44663046 156.51074238 115.32390462 162.64203179 101.3125 167.3125 C91.8689971 168.18929403 84.20881138 167.10501864 76.609375 161.21875 C68.75881158 154.33229086 63.15025206 147.5170564 60.3125 137.3125 C60.32436191 135.32958349 60.33812802 133.34570546 60.42700195 131.36474609 C60.68240455 125.04877463 60.68240455 125.04877463 57.89404297 119.57470703 C54.05417125 116.09855794 49.7273853 113.35499873 45.34375 110.61914062 C42.53952255 108.81526739 39.99710365 106.75800304 37.4375 104.625 C36.57769531 103.91214844 35.71789062 103.19929688 34.83203125 102.46484375 C31.37472682 99.51139454 27.993506 96.48101726 24.63671875 93.4140625 C22.60684985 91.57865163 20.5354064 89.81868556 18.4375 88.0625 C14.7418387 84.84199515 11.39821536 81.33516183 8.0625 77.75 C7.55477051 77.20762695 7.04704102 76.66525391 6.52392578 76.10644531 C-1.6875 67.15395532 -1.6875 67.15395532 -1.6875 63.3125 C-2.23535156 63.60125 -2.78320312 63.89 -3.34765625 64.1875 C-12.35029523 68.40336996 -22.51302226 69.11700657 -32 65.875 C-41.63857466 61.34486991 -48.62966585 53.11184063 -53.5 43.875 C-56.55580952 34.84806843 -55.71694434 23.41078648 -52.0078125 14.7734375 C-47.02276815 5.48178679 -40.17695451 -0.75763897 -30.3125 -4.5625 C-19.78846687 -7.63734794 -9.21781344 -5.72409058 0 0 Z " fill="#4CAF3A" transform="translate(185.6875,217.6875)"/>
<path d="M0 0 C7.83829755 5.64025644 13.76057342 12.88392172 16.3125 22.3125 C17.53343796 31.38138034 17.32413019 40.42151707 12.3125 48.3125 C11.65894531 49.46298828 11.65894531 49.46298828 10.9921875 50.63671875 C6.22012297 58.52496749 -0.0697862 63.2231309 -8.6875 66.3125 C-18.79923486 68.77583575 -28.94700634 67.65209783 -38.6875 64.3125 C-39.13738281 64.96734375 -39.58726562 65.6221875 -40.05078125 66.296875 C-45.37663855 73.85340198 -51.2850103 80.65493103 -57.6875 87.3125 C-58.17798828 87.82490234 -58.66847656 88.33730469 -59.17382812 88.86523438 C-67.14095391 97.14398177 -75.38657244 104.96433996 -85.12109375 111.16015625 C-93.15289016 116.01084967 -93.15289016 116.01084967 -98.46191406 123.36376953 C-99.18623015 127.68894314 -98.86922991 131.96492189 -98.66162109 136.32470703 C-98.76770936 144.47348656 -104.1563289 151.77409332 -109.57421875 157.40625 C-117.99452917 165.00165016 -126.42005242 166.90464699 -137.63671875 166.625 C-147.69828029 166.06119548 -155.6404815 161.42157201 -162.59375 154.3828125 C-169.90370445 145.92680587 -172.49760798 135.54968563 -172.05859375 124.5078125 C-170.83936413 114.00960379 -166.93055637 106.05576191 -158.6875 99.3125 C-149.43773086 93.32278561 -139.47231254 89.69502607 -128.375 91.73828125 C-121.10718618 93.63676467 -115.01163034 97.34633578 -108.6875 101.3125 C-108.0584375 100.74402344 -107.429375 100.17554688 -106.78125 99.58984375 C-102.81487204 96.01174074 -98.84849363 92.4370641 -94.8125 88.9375 C-87.43327844 82.50126213 -80.1858953 75.91280589 -73.328125 68.921875 C-71.51014714 67.13852529 -69.61574286 65.47579346 -67.6875 63.8125 C-63.83444516 60.47467924 -60.16409083 57.04241026 -56.6875 53.3125 C-55.82125 52.405 -54.955 51.4975 -54.0625 50.5625 C-52.18850929 46.1330674 -53.43506068 43.82118735 -54.859375 39.3671875 C-57.24159166 30.57995435 -56.20232568 22.34741751 -52.36328125 14.171875 C-46.74539655 4.5861137 -39.50857291 -1.03486053 -29.3125 -5 C-18.76776672 -6.99986321 -9.16689346 -5.69247022 0 0 Z " fill="#FE9B1B" transform="translate(877.6875,217.6875)"/>
<path d="M0 0 C6.77221655 5.42801478 12.78558182 13.89861294 14.06640625 22.65625 C13.93621094 23.72875 13.80601562 24.80125 13.671875 25.90625 C12.78850671 32.93886765 12.78850671 32.93886765 15.2265625 39.36572266 C18.48974872 42.83658554 22.30348084 45.58725613 26.19091797 48.31689453 C28.84407402 50.21161128 31.30426961 52.3295043 33.81640625 54.40625 C47.52619222 64.8324576 62.89209295 73.57794774 78.06640625 81.65625 C78.6991748 81.21522949 79.33194336 80.77420898 79.98388672 80.31982422 C89.26048747 73.85431461 97.87131812 72.37040166 109.06640625 73.65625 C119.5782448 76.17420203 128.15605846 82.8489933 134.06640625 91.84375 C138.50134384 99.77666654 139.96029007 107.64696583 138.00390625 116.53125 C134.77081681 127.92680292 129.1841893 137.04813553 118.69921875 143 C109.46163483 147.35441666 99.12120294 148.2922132 89.37890625 145.03125 C84.27902883 142.96078694 80.13632457 140.34965605 76.06640625 136.65625 C75.52242187 136.16640625 74.9784375 135.6765625 74.41796875 135.171875 C67.145698 127.71502885 64.63409405 117.98822614 64.75390625 107.84375 C64.81747461 105.44255027 64.92784873 103.05483457 65.06640625 100.65625 C64.11725342 100.1597998 64.11725342 100.1597998 63.14892578 99.65332031 C40.58027841 87.79141232 20.8633235 74.90374674 2.06640625 57.65625 C1.10541016 58.16285156 1.10541016 58.16285156 0.125 58.6796875 C-0.73996094 59.12570312 -1.60492188 59.57171875 -2.49609375 60.03125 C-3.34300781 60.47210938 -4.18992188 60.91296875 -5.0625 61.3671875 C-14.51516609 65.61124166 -26.38575308 66.66265191 -36.30859375 63.21875 C-44.59420808 59.2645698 -52.18915629 52.11243793 -55.93359375 43.65625 C-57.72459794 38.42296116 -58.32089813 33.7523945 -58.30859375 28.28125 C-58.30698242 27.53319092 -58.30537109 26.78513184 -58.30371094 26.0144043 C-58.17349835 20.14526321 -57.10433676 15.66558358 -53.93359375 10.65625 C-53.35609375 9.625 -52.77859375 8.59375 -52.18359375 7.53125 C-38.98052227 -9.33934134 -17.49971004 -12.41718556 0 0 Z " fill="#55BA38" transform="translate(187.93359375,365.34375)"/>
<path d="M0 0 C8.88153798 6.14764437 14.10384386 14.66032943 17 25 C18.01285843 34.83414866 17.15173925 43.95632894 11.45703125 52.24609375 C5.01350881 60.04614723 -3.64573967 66.95388309 -13.94580078 68.24365234 C-23.47414862 69.02689438 -30.8225427 68.32260535 -39 63 C-40.32545911 62.31781207 -41.65656023 61.64605868 -43 61 C-43.57363281 61.55945313 -44.14726563 62.11890625 -44.73828125 62.6953125 C-55.6082489 72.95497847 -67.70715422 82.01654097 -80.5 89.75 C-81.08249512 90.10666748 -81.66499023 90.46333496 -82.26513672 90.83081055 C-85.78532201 92.91273782 -89.3211041 94.57611235 -93.1171875 96.1015625 C-100.63253781 99.13610747 -100.63253781 99.13610747 -107 104 C-109.17021512 109.38706747 -108.42681598 115.23108147 -108.04492188 120.90527344 C-107.95202608 125.23704468 -109.6783743 128.47262676 -112 132 C-112.39960937 132.67933594 -112.79921875 133.35867188 -113.2109375 134.05859375 C-117.20354551 140.16289906 -122.67950363 143.55742417 -129 147 C-129.64710938 147.36351562 -130.29421875 147.72703125 -130.9609375 148.1015625 C-138.00973576 151.39510579 -147.28772266 151.21231554 -154.6875 149.30859375 C-163.43022288 145.68097089 -172.09217546 139.09435431 -176.22265625 130.4375 C-180.67570015 119.4565172 -181.79192923 109.57296885 -177.125 98.359375 C-171.94288805 87.49133465 -164.10598724 81.18044431 -153 77 C-144.20851835 74.06950612 -135.11449383 76.00005883 -127 80 C-124.29938265 81.6149892 -121.64210116 83.291205 -119 85 C-111.94983397 80.68131607 -104.90561938 76.3532649 -97.87240601 72.0070343 C-94.82691099 70.12535096 -91.77616022 68.25286577 -88.71875 66.390625 C-80.84994001 61.50019636 -73.73766264 55.95109504 -66.66796875 49.98828125 C-63.75607773 47.55158686 -60.72849511 45.56447107 -57.5 43.5625 C-55.35243167 42.08794109 -55.35243167 42.08794109 -54 40 C-53.58981535 36.49113784 -53.75976583 33.2190778 -53.98046875 29.6953125 C-54.03249646 19.8516706 -49.03180654 11.93796489 -42.33203125 5.09375 C-30.93805576 -5.13601694 -13.51913404 -8.19974968 0 0 Z " fill="#FE9B1B" transform="translate(877,362)"/>
<path d="M0 0 C1.76923828 0.01353516 1.76923828 0.01353516 3.57421875 0.02734375 C4.47785156 0.03894531 5.38148438 0.05054688 6.3125 0.0625 C6.3125 0.7225 6.3125 1.3825 6.3125 2.0625 C7.4675 2.124375 8.6225 2.18625 9.8125 2.25 C15.81847579 3.00607142 20.27043212 5.9603713 24.4375 10.25 C32.36345739 22.13893609 35.44068566 31.63886059 34.3125 46.0625 C32.28625006 55.21095781 26.52962729 63.05808694 18.9375 68.4375 C10.9388086 73.29336662 2.68762029 75.72774628 -6.6875 74.0625 C-16.48030127 70.81522166 -24.80171306 65.68544621 -30.6875 57.0625 C-31.0175 56.4025 -31.3475 55.7425 -31.6875 55.0625 C-41.35650689 55.69897524 -51.0228538 56.36259496 -60.6875 57.0625 C-60.996875 59.0115625 -60.996875 59.0115625 -61.3125 61 C-63.31664323 69.86555025 -69.19737239 77.06044246 -76.6875 82.0625 C-85.52729429 86.60330618 -94.20751451 87.37526689 -103.8125 85 C-113.8784801 81.56478457 -120.11266534 74.27987453 -124.71875 64.98046875 C-128.21945192 56.2449209 -127.96259497 46.40049545 -124.625 37.6875 C-119.91639349 27.82434653 -113.65604565 22.47430658 -103.6875 18.0625 C-95.9325914 15.55400886 -87.39395955 16.39045899 -80.0703125 19.734375 C-74.39274031 22.89892343 -69.52832552 26.39585731 -66.125 32 C-63.9697638 35.41137825 -63.9697638 35.41137825 -60.25 35.625 C-58.72373283 35.48862252 -57.20265139 35.29142474 -55.6875 35.0625 C-54.57117188 34.90652344 -53.45484375 34.75054688 -52.3046875 34.58984375 C-49.91744454 34.24772294 -47.53294886 33.88560983 -45.15234375 33.5 C-41.62583791 33.05471403 -38.23797804 32.99013357 -34.6875 33.0625 C-34.48125 31.804375 -34.275 30.54625 -34.0625 29.25 C-31.71417535 18.94976224 -26.22864972 11.17980993 -17.6875 5.0625 C-11.7843152 1.53698685 -6.86850787 -0.06800503 0 0 Z " fill="#52B738" transform="translate(336.6875,704.9375)"/>
<path d="M0 0 C8.37888265 5.88013574 14.2669795 13.42821245 16.58203125 23.54296875 C16.875 25.75 16.875 25.75 17 29 C19.99921531 29.24515325 22.99763152 29.47557912 26 29.6796875 C28.82964079 29.88281934 31.62501155 30.20044097 34.4375 30.5703125 C42.12359708 31.80984586 42.12359708 31.80984586 49.1328125 29.4921875 C50.60595971 27.45712746 50.60595971 27.45712746 51.76953125 25.203125 C54.69746351 19.96073199 60.16416621 17.04966251 65.6875 15.125 C74.47800969 12.85299134 84.87981968 12.47589954 93 17 C101.64326972 23.00812651 108.02501073 31.47372742 110 42 C111.02190289 52.18552393 108.83690081 61.52490027 102.8125 69.875 C97.57316555 76.05674151 91.0770159 80.63101425 83 82 C71.27500895 82.90445232 62.11649791 80.60281524 53 73 C48.05020121 67.78621195 43 60.3837202 43 53 C42.09121094 52.95101562 41.18242188 52.90203125 40.24609375 52.8515625 C31.08454807 52.30656799 22.08241384 51.32693422 13 50 C12.6596875 50.50789062 12.319375 51.01578125 11.96875 51.5390625 C6.40547869 59.44009144 -0.26010546 65.28453095 -10 67 C-21.38407118 68.00338386 -29.35344668 66.96297551 -38.25 59.75 C-45.20325777 53.25292018 -49.47080906 45.1835599 -50.28515625 35.66796875 C-50.60458361 22.84920972 -47.92171092 14.42262422 -39.21875 5.08984375 C-28.60064046 -5.15837263 -12.85389037 -7.57681397 0 0 Z " fill="#FE9B1B" transform="translate(705,709)"/>
<path d="M0 0 C6.55304376 2.56642858 12.24937649 5.81404268 17.9375 9.9375 C18.74445313 10.52144531 19.55140625 11.10539063 20.3828125 11.70703125 C46.27166732 31.47745897 65.02887907 59.95957452 80.9375 87.9375 C81.28522461 88.53965332 81.63294922 89.14180664 81.99121094 89.76220703 C97.71330476 117.11865028 110.21174557 150.46321632 113.9375 181.9375 C113.11507812 182.22882813 112.29265625 182.52015625 111.4453125 182.8203125 C110.32898438 183.23023438 109.21265625 183.64015625 108.0625 184.0625 C106.97195313 184.45695313 105.88140625 184.85140625 104.7578125 185.2578125 C99.84234372 187.23859239 95.41751693 190.13565427 90.9375 192.9375 C90.79763672 192.2254541 90.65777344 191.5134082 90.51367188 190.77978516 C81.31925885 144.56381681 65.55273144 99.25012468 35.21484375 62.48681641 C33.97554138 60.98364117 32.75310024 59.46661393 31.53125 57.94921875 C30.04756047 56.11239078 28.54449146 54.29099253 27.01953125 52.48828125 C24.9375 49.9375 24.9375 49.9375 23.19921875 47.29296875 C21.25800769 44.55977802 19.75386657 42.77764135 16.9375 40.9375 C13.36459689 40.38059 10.03885063 40.19688438 6.4375 40.171875 C-4.26728546 40.05958704 -13.48533709 35.46973902 -21.0625 27.9375 C-26.2795879 21.4326499 -28.64501302 16.38393878 -28.0625 7.9375 C-26.77139797 4.27937758 -25.40089007 2.2672134 -22.625 -0.4375 C-15.03913033 -3.89772125 -7.71914386 -2.55892585 0 0 Z " fill="#394348" transform="translate(389.0625,162.0625)"/>
<path d="M0 0 C5.13647685 4.86613596 5.13647685 4.86613596 5.80859375 8.765625 C5.82055021 17.13514395 4.01786999 22.51234971 -1.5 28.8125 C-8.24053967 35.15996284 -18.50520753 39.90445685 -27.625 41.25 C-28.46289062 41.14558594 -29.30078125 41.04117188 -30.1640625 40.93359375 C-34.84262611 40.41302118 -37.50690275 40.37694293 -41.31640625 43.3515625 C-43.72550128 45.9535254 -45.96858853 48.59008692 -48.15087891 51.38037109 C-49.6786562 53.3180522 -51.25840839 55.20115452 -52.85546875 57.08203125 C-60.12543024 65.71390882 -66.64103575 74.68620828 -72.625 84.25 C-73.01139648 84.8672998 -73.39779297 85.48459961 -73.79589844 86.12060547 C-76.48619234 90.45145998 -79.07596899 94.83481926 -81.625 99.25 C-82.60919922 100.93222656 -82.60919922 100.93222656 -83.61328125 102.6484375 C-96.48390947 125.604067 -104.60860745 151.13853356 -110.08886719 176.76513672 C-110.83583529 180.22717742 -111.63426347 183.67558706 -112.4375 187.125 C-112.67082031 188.13304687 -112.90414062 189.14109375 -113.14453125 190.1796875 C-113.30308594 190.86289062 -113.46164062 191.54609375 -113.625 192.25 C-114.43324219 191.76789063 -115.24148438 191.28578125 -116.07421875 190.7890625 C-117.14285156 190.15742188 -118.21148438 189.52578125 -119.3125 188.875 C-120.36824219 188.24851562 -121.42398438 187.62203125 -122.51171875 186.9765625 C-127.21258207 184.36955925 -131.30148308 182.99281631 -136.625 182.25 C-135.9680598 174.86854694 -134.1051417 167.94035072 -132.125 160.8125 C-131.94859985 160.1775058 -131.77219971 159.5425116 -131.5904541 158.88827515 C-121.39024967 122.38273002 -105.91827956 87.99044342 -83.625 57.25 C-82.86574219 56.19554687 -82.10648438 55.14109375 -81.32421875 54.0546875 C-73.83733633 43.86827199 -65.84050401 34.09296296 -56.6953125 25.34765625 C-54.49490052 23.19186795 -54.49490052 23.19186795 -52.30078125 20.3359375 C-49.4927116 16.92345713 -46.25796172 14.39000409 -42.6875 11.8125 C-42.03869873 11.34021973 -41.38989746 10.86793945 -40.72143555 10.38134766 C-30.44241887 3.08768468 -12.59345877 -8.10942421 0 0 Z " fill="#394348" transform="translate(658.625,161.75)"/>
<path d="M0 0 C3.63177311 2.86538319 6.08124839 6.03314505 8.48046875 9.95703125 C8.88007812 10.57964844 9.2796875 11.20226562 9.69140625 11.84375 C14.63142752 19.91945852 14.4273008 29.7540785 13.48046875 38.95703125 C11.04217083 49.06343432 5.01744841 57.19716795 -3.64453125 62.89453125 C-12.37144716 68.11944443 -22.96260397 68.36265756 -32.7265625 66.26953125 C-42.55781004 62.96953208 -50.22015888 56.90559169 -55.51953125 47.95703125 C-60.55426846 36.50634574 -61.4400104 24.57696445 -56.953125 12.80859375 C-51.70809607 2.37570242 -43.10200353 -2.98614761 -32.51953125 -7.04296875 C-20.12617009 -9.63692806 -10.433648 -6.99010268 0 0 Z " fill="#FE9B1B" transform="translate(765.51953125,317.04296875)"/>
<path d="M0 0 C8.22093391 4.85460322 13.48731399 11.10097604 17.71875 19.60546875 C18.09386719 20.34925781 18.46898437 21.09304688 18.85546875 21.859375 C21.21740386 29.37267989 21.17615737 40.37093936 18.15625 47.66796875 C10.85288046 60.80371113 1.73015462 66.93500054 -12.28125 71.60546875 C-21.7247529 72.48226278 -29.38493862 71.39798739 -36.984375 65.51171875 C-46.32069607 57.32196343 -53.10259487 48.59588275 -53.98046875 35.75854492 C-54.21763207 26.28683494 -51.25427575 19.59061171 -46.28125 11.60546875 C-45.62640625 10.52523438 -44.9715625 9.445 -44.296875 8.33203125 C-42.28597227 5.61185663 -41.34302694 4.78534426 -38.28125 3.60546875 C-36.04591787 2.35784152 -33.82124903 1.09263341 -31.59765625 -0.17578125 C-21.52649536 -5.47460452 -10.17552195 -4.88260932 0 0 Z " fill="#59BE39" transform="translate(299.28125,313.39453125)"/>
<path d="M0 0 C9.3807284 5.64144325 15.55553109 13.66659328 19 24 C19.86471401 33.48680718 20.51815019 43.85251178 15 52 C14.59910156 52.67933594 14.19820312 53.35867188 13.78515625 54.05859375 C9.80164332 60.16664691 4.31744922 63.55908386 -2 67 C-2.64710938 67.36351562 -3.29421875 67.72703125 -3.9609375 68.1015625 C-11.00973576 71.39510579 -20.28772266 71.21231554 -27.6875 69.30859375 C-36.43022288 65.68097089 -45.09217546 59.09435431 -49.22265625 50.4375 C-53.67570015 39.4565172 -54.79192923 29.57296885 -50.125 18.359375 C-44.94288805 7.49133465 -37.10598724 1.18044431 -26 -3 C-17.21098723 -5.92967092 -8.10049078 -4.03152315 0 0 Z " fill="#FE9B1B" transform="translate(750,442)"/>
<path d="M0 0 C6.97323751 5.58913555 12.37832438 13.78520751 14.06640625 22.65625 C15.18128491 33.76848319 12.16246522 43.74308665 5.62109375 52.7578125 C0.0574966 59.55155173 -6.86563402 61.96693009 -14.93359375 64.65625 C-27.32179842 65.5140031 -36.45127821 64.73400066 -46.24609375 56.40625 C-53.33098267 49.62166249 -57.71672113 42.6083048 -58.26953125 32.5703125 C-58.29919108 31.14087338 -58.31180919 29.71099318 -58.30859375 28.28125 C-58.30698242 27.53319092 -58.30537109 26.78513184 -58.30371094 26.0144043 C-58.17349835 20.14526321 -57.10433676 15.66558358 -53.93359375 10.65625 C-53.35609375 9.625 -52.77859375 8.59375 -52.18359375 7.53125 C-38.98052227 -9.33934134 -17.49971004 -12.41718556 0 0 Z " fill="#58BD39" transform="translate(187.93359375,365.34375)"/>
<path d="M0 0 C8.03063069 5.78657044 13.39223995 14.34252551 15.1875 24.1875 C15.25374507 25.93636981 15.27302595 27.68752748 15.25 29.4375 C15.24097656 30.32953125 15.23195313 31.2215625 15.22265625 32.140625 C15.21105469 32.81609375 15.19945312 33.4915625 15.1875 34.1875 C15.8475 34.5175 16.5075 34.8475 17.1875 35.1875 C16.5275 35.1875 15.8675 35.1875 15.1875 35.1875 C14.960625 36.486875 14.73375 37.78625 14.5 39.125 C12.57360892 47.64660498 8.12055058 54.82771859 1.1875 60.1875 C-8.64248695 66.04301692 -18.46696359 67.79519719 -29.8125 66.1875 C-38.80324949 63.64840607 -47.01896796 58.1608076 -52.04296875 50.25 C-57.11291764 40.87883094 -58.43154871 30.46795281 -55.6875 20.125 C-52.21393814 9.96281203 -47.03586786 2.88843477 -37.44140625 -2.02734375 C-24.9309344 -7.79982748 -11.80343337 -7.42097048 0 0 Z " fill="#58BD39" transform="translate(287.8125,624.8125)"/>
<path d="M0 0 C0 0.66 0 1.32 0 2 C1.155 2.061875 2.31 2.12375 3.5 2.1875 C9.50597579 2.94357142 13.95793212 5.8978713 18.125 10.1875 C26.05095739 22.07643609 29.12818566 31.57636059 28 46 C25.97375006 55.14845781 20.21712729 62.99558694 12.625 68.375 C4.6263086 73.23086662 -3.62487971 75.66524628 -13 74 C-22.79280127 70.75272166 -31.11421306 65.62294621 -37 57 C-37.33 56.34 -37.66 55.68 -38 55 C-38.99 54.34 -39.98 53.68 -41 53 C-40.01 52.505 -40.01 52.505 -39 52 C-39.32097656 50.99324219 -39.64195312 49.98648438 -39.97265625 48.94921875 C-43.04340962 38.12134528 -41.41245894 27.70806127 -36 18 C-31.34675946 10.17287284 -24.09219648 3.34323216 -15.328125 0.421875 C-10.2716163 -0.4944051 -5.11406174 -0.2104873 0 0 Z " fill="#59BE3A" transform="translate(343,705)"/>
<path d="M0 0 C8.8794233 6.07810018 13.63412184 13.90236552 17 24 C17.80584003 36.25933691 17.4664079 46.80470008 9.5 56.8125 C3.09019026 63.53616106 -6.15573411 68.01688099 -15.44506836 68.34399414 C-26.14092202 68.50061508 -32.74711763 66.26738057 -40.75 58.875 C-49.73424878 49.36507709 -52.59990172 39.85919433 -52.34375 27.125 C-51.91146125 19.27175446 -48.11142705 12.25987167 -42.79296875 6.55859375 C-39.20680891 3.44121298 -35.2091378 1.17033668 -31 -1 C-30.34 -1.34289062 -29.68 -1.68578125 -29 -2.0390625 C-19.63806224 -6.21292642 -8.83027031 -4.77067313 0 0 Z " fill="#FE9B1B" transform="translate(776,623)"/>
<path d="M0 0 C7.88037361 6.47316404 13.63980301 15.26793414 14.67578125 25.59375 C14.97197818 36.06976762 12.2562805 45.18698222 5.42578125 53.24609375 C-1.49123989 60.10875716 -8.7109865 63.22383807 -18.4375 63.53125 C-27.86098643 63.33174904 -35.31662516 60.26153619 -42.5625 54.21875 C-44.92181978 51.73359983 -46.78403497 49.14321682 -48.5625 46.21875 C-48.97628906 45.55230469 -49.39007812 44.88585937 -49.81640625 44.19921875 C-54.10440375 36.14615028 -53.66405196 26.58950851 -51.5 17.90625 C-48.54615514 9.50021487 -42.26950567 2.59072413 -34.5625 -1.78125 C-23.70094179 -6.70814238 -9.9496567 -6.91622478 0 0 Z " fill="#FE9B1B" transform="translate(800.5625,727.78125)"/>
<path d="M0 0 C2.91373896 1.30287548 4.83566109 2.63119567 6.953125 5.01171875 C7.75157837 5.89549194 7.75157837 5.89549194 8.56616211 6.79711914 C9.12182861 7.42094482 9.67749512 8.04477051 10.25 8.6875 C14.24979279 13.08478085 18.21596532 17.29455443 22.7890625 21.10546875 C25.89041372 23.76298702 28.83775712 26.57739134 31.8125 29.375 C36.86497207 34.10571859 42.04118418 38.59215795 47.4453125 42.921875 C51.41372465 46.15000231 55.21001208 49.56561588 59 53 C57.31338027 57.54089927 54.99607926 61.40627318 52.4375 65.5 C51.03242942 67.94360101 49.98016869 70.36108429 49 73 C44.68612333 71.54346969 41.40180711 69.23930808 37.875 66.4375 C37.3080542 65.99349854 36.7411084 65.54949707 36.15698242 65.09204102 C34.43173103 63.7357113 32.71464074 62.36971009 31 61 C30.02933594 60.2265625 29.05867188 59.453125 28.05859375 58.65625 C22.66293425 54.29674133 17.44508173 49.78027875 12.32421875 45.1015625 C10.29434985 43.26615163 8.2229064 41.50618556 6.125 39.75 C2.4293387 36.52949515 -0.91428464 33.02266183 -4.25 29.4375 C-4.75772949 28.89512695 -5.26545898 28.35275391 -5.78857422 27.79394531 C-14 18.84145532 -14 18.84145532 -14 14 C-12.4609375 12.67578125 -12.4609375 12.67578125 -10.375 11.3125 C-5.92155194 8.16655893 -3.01528361 4.50008235 0 0 Z " fill="#394347" transform="translate(198,266)"/>
<path d="M0 0 C3.31040374 3.24492323 6.32222011 6.66097252 9.31640625 10.1953125 C11.06766041 12.21123097 11.06766041 12.21123097 14 14 C7.56426457 31.81486183 -13.32331485 48.63799908 -28 60 C-28.69303223 60.54285645 -29.38606445 61.08571289 -30.10009766 61.64501953 C-32.415539 63.4578539 -34.73765631 65.26174278 -37.0625 67.0625 C-38.18930176 67.94035156 -38.18930176 67.94035156 -39.33886719 68.8359375 C-40.04301758 69.37605469 -40.74716797 69.91617188 -41.47265625 70.47265625 C-42.10437744 70.96000244 -42.73609863 71.44734863 -43.38696289 71.94946289 C-45 73 -45 73 -47 73 C-47.22042969 72.18208984 -47.22042969 72.18208984 -47.4453125 71.34765625 C-49.30233582 65.10421577 -52.17010495 60.24286604 -56 55 C-54.43139009 50.74377183 -51.21387059 48.40596577 -47.8125 45.625 C-40.64402965 39.62141768 -33.80912704 33.32173152 -27.01660156 26.89892578 C-24.8719652 24.87943648 -22.71448739 22.87435254 -20.5546875 20.87109375 C-9.80017211 10.89664651 -9.80017211 10.89664651 0 0 Z " fill="#3A4448" transform="translate(825,266)"/>
<path d="M0 0 C0.29132813 0.70125 0.58265625 1.4025 0.8828125 2.125 C3.59841036 8.41015731 6.61359752 13.73933173 11 19 C-5.68180106 35.31553397 -24.80721232 47.65559586 -45.3125 58.5625 C-46.14394531 59.0049707 -46.97539063 59.44744141 -47.83203125 59.90332031 C-48.60546875 60.30776367 -49.37890625 60.71220703 -50.17578125 61.12890625 C-51.21085815 61.67140015 -51.21085815 61.67140015 -52.2668457 62.22485352 C-54 63 -54 63 -56 63 C-56.21914063 62.443125 -56.43828125 61.88625 -56.6640625 61.3125 C-58.80720095 56.1550286 -61.29553152 51.95720766 -64.828125 47.62890625 C-66 46 -66 46 -66 44 C-63.83544922 42.44702148 -63.83544922 42.44702148 -60.8046875 40.62109375 C-59.70302246 39.95182861 -58.60135742 39.28256348 -57.46630859 38.59301758 C-56.87968445 38.2410733 -56.2930603 37.88912903 -55.68865967 37.52651978 C-53.87064764 36.43488661 -52.05879168 35.33368793 -50.24853516 34.22924805 C-46.05430222 31.67112156 -41.85373622 29.12349987 -37.65234375 26.57714844 C-29.1276016 21.38050006 -21.43543115 15.50107383 -13.7890625 9.11328125 C-2.80011065 0 -2.80011065 0 0 0 Z " fill="#394347" transform="translate(824,403)"/>
<path d="M0 0 C3.42118944 1.52140452 6.01466733 3.53360339 8.875 5.9375 C9.86113281 6.74960937 10.84726563 7.56171875 11.86328125 8.3984375 C13.89444908 10.07709903 15.90871968 11.77125606 17.91796875 13.4765625 C29.36991989 22.99009875 42.25736896 30.37285927 55 38 C56.93233327 39.16008696 58.86462862 40.32023707 60.796875 41.48046875 C62.19782927 42.32045828 63.59883454 43.16036281 65 44 C63.54043221 46.99195737 61.9134589 49.64832107 60 52.375 C57.66683998 55.81783368 56.04304316 58.93213166 55 63 C48.83536662 61.33669251 43.56553109 58.14381972 38.0625 55 C37.03995117 54.41766602 36.01740234 53.83533203 34.96386719 53.23535156 C18.47714995 43.75873457 4.02658328 32.87037902 -10 20 C-8.51854712 16.90889158 -6.81192913 14.03314625 -5 11.125 C-2.80010372 7.49785395 -1.08767821 4.13317719 0 0 Z " fill="#394347" transform="translate(200,403)"/>
<path d="M0 0 C9.72395343 0.632723 19.34455651 1.72334958 29 3 C28.54177532 6.46941546 28.10868317 9.67395049 27 13 C26.77820215 14.89212737 26.59385985 16.78884472 26.4375 18.6875 C26.35371094 19.68136719 26.26992188 20.67523437 26.18359375 21.69921875 C26.09271484 22.83810547 26.09271484 22.83810547 26 24 C15.69897518 23.5762699 6.05703389 22.26818211 -4 20 C-3.79503906 19.39414062 -3.59007812 18.78828125 -3.37890625 18.1640625 C-1.4279788 12.09658479 -0.3922385 6.35696876 0 0 Z " fill="#394247" transform="translate(722,738)"/>
<path d="M0 0 C0.04898437 0.7734375 0.09796875 1.546875 0.1484375 2.34375 C0.58747623 8.46001367 1.30007536 14.10692791 3 20 C-1.83205065 21.48199492 -6.47095104 22.47039239 -11.5 23.125 C-12.7478125 23.29257812 -13.995625 23.46015625 -15.28125 23.6328125 C-19 24 -19 24 -26 24 C-26.66 17.07 -27.32 10.14 -28 3 C-24.679375 2.505 -21.35875 2.01 -17.9375 1.5 C-16.38857056 1.26506836 -16.38857056 1.26506836 -14.80834961 1.02539062 C-9.8133573 0.29688398 -5.04724256 -0.16800807 0 0 Z " fill="#384246" transform="translate(302,738)"/>
<path d="M0 0 C0.66 0.33 1.32 0.66 2 1 C-2.75 5 -2.75 5 -5 5 C-4.43667969 5.845625 -3.87335937 6.69125 -3.29296875 7.5625 C-2.9273584 8.11164063 -2.56174805 8.66078125 -2.18505859 9.2265625 C-1.40745394 10.3902461 -0.62663065 11.55178667 0.15771484 12.7109375 C1.34442223 14.46740352 2.51656565 16.23298869 3.6875 18 C4.09033203 18.59039062 4.49316406 19.18078125 4.90820312 19.7890625 C7.36107288 23.51972537 8.59969554 26.5491572 9 31 C6.09165254 28.49368881 4.83025942 25.77930507 3.25 22.3125 C0.84281541 17.29803738 -1.79104547 13.57809611 -5.77734375 9.71875 C-7 8 -7 8 -6.8828125 5.921875 C-5.46811983 2.84210157 -2.83453022 1.6886563 0 0 Z " fill="#1B509D" transform="translate(537,432)"/>
<path d="M0 0 C2 1 2 1 2.61230469 2.81176758 C4.30629404 12.37299339 3.94529212 23.12309273 0 32 C-2 29 -2 29 -1.625 26.8125 C-1.41875 26.214375 -1.2125 25.61625 -1 25 C-0.34 25 0.32 25 1 25 C1.02718316 22.14576808 1.04692705 19.29179985 1.0625 16.4375 C1.07087891 15.63763672 1.07925781 14.83777344 1.08789062 14.01367188 C1.10742247 9.22836896 0.80437018 4.71854949 0 0 Z " fill="#194996" transform="translate(557,377)"/>
<path d="M0 0 C0.33 0.99 0.66 1.98 1 3 C-0.28548409 4.33929505 -1.57858155 5.67128643 -2.875 7 C-3.59429688 7.7425 -4.31359375 8.485 -5.0546875 9.25 C-7 11 -7 11 -9 11 C-9.2475 11.598125 -9.495 12.19625 -9.75 12.8125 C-11.16370012 15.28647521 -12.65055383 16.43370255 -15 18 C-15.66 17.67 -16.32 17.34 -17 17 C-11.39 11.39 -5.78 5.78 0 0 Z " fill="#242E33" transform="translate(686,251)"/>
<path d="M0 0 C0.66 0 1.32 0 2 0 C2.19335938 0.86882812 2.38671875 1.73765625 2.5859375 2.6328125 C2.84632813 3.78523438 3.10671875 4.93765625 3.375 6.125 C3.63023437 7.26195312 3.88546875 8.39890625 4.1484375 9.5703125 C4.94636477 12.78398288 5.90790559 15.87566034 7 19 C5.02 19.33 3.04 19.66 1 20 C1 19.34 1 18.68 1 18 C1.66 17.67 2.32 17.34 3 17 C2.855625 16.41992188 2.71125 15.83984375 2.5625 15.2421875 C1.49110572 10.73340325 0.76054064 6.66945753 1 2 C0.34 1.67 -0.32 1.34 -1 1 C-0.67 0.67 -0.34 0.34 0 0 Z " fill="#2A3A47" transform="translate(695,476)"/>
<path d="M0 0 C-0.89203125 0.04898437 -1.7840625 0.09796875 -2.703125 0.1484375 C-3.87359375 0.22320312 -5.0440625 0.29796875 -6.25 0.375 C-7.99023438 0.47941406 -7.99023438 0.47941406 -9.765625 0.5859375 C-12.76418968 0.96981172 -14.38940737 1.62600388 -17 3 C-20.25 2.625 -20.25 2.625 -23 2 C-16.29453615 -2.47030923 -7.20351218 -4.09770896 0 0 Z " fill="#2E579F" transform="translate(520,344)"/>
<path d="M0 0 C5.68250938 5.18111149 10.65538981 11.59343652 13 19 C12.67 19.99 12.34 20.98 12 22 C11.20335937 20.46279297 11.20335937 20.46279297 10.390625 18.89453125 C9.6773651 17.53370644 8.96380762 16.17303758 8.25 14.8125 C7.90195312 14.13896484 7.55390625 13.46542969 7.1953125 12.77148438 C5.11346993 8.81983875 2.82489371 5.48021815 0 2 C0 1.34 0 0.68 0 0 Z " fill="#1C4C98" transform="translate(544,354)"/>
<path d="M0 0 C0 3 0 3 -1 5 C-0.34 5.33 0.32 5.66 1 6 C0.01 6.5259375 0.01 6.5259375 -1 7.0625 C-5.01964353 9.65851978 -8.45965414 12.79348328 -12 16 C-12.66 15.67 -13.32 15.34 -14 15 C-12.98679687 14.00419922 -12.98679687 14.00419922 -11.953125 12.98828125 C-11.06109375 12.10527344 -10.1690625 11.22226562 -9.25 10.3125 C-8.36828125 9.44238281 -7.4865625 8.57226562 -6.578125 7.67578125 C-4.21194702 5.21997532 -2.08107444 2.69858952 0 0 Z " fill="#222D34" transform="translate(825,266)"/>
<path d="M0 0 C1.61270411 5.01730167 0.55290597 9.83954431 0 15 C-3.63 14.67 -7.26 14.34 -11 14 C-11 13.67 -11 13.34 -11 13 C-8.03 13 -5.06 13 -2 13 C-1.93941406 12.22914063 -1.87882813 11.45828125 -1.81640625 10.6640625 C-1.73261719 9.66117188 -1.64882813 8.65828125 -1.5625 7.625 C-1.48128906 6.62726562 -1.40007813 5.62953125 -1.31640625 4.6015625 C-1 2 -1 2 0 0 Z " fill="#203141" transform="translate(748,747)"/>
<path d="M0 0 C0.66 0.66 1.32 1.32 2 2 C-1.63 5.63 -5.26 9.26 -9 13 C-9.99 12.34 -10.98 11.68 -12 11 C-11.46890625 10.54109375 -10.9378125 10.0821875 -10.390625 9.609375 C-6.81675301 6.50506283 -3.28145941 3.41818688 0 0 Z " fill="#2E383D" transform="translate(801,290)"/>
<path d="M0 0 C0.66 0.66 1.32 1.32 2 2 C0.40207236 3.65189143 -1.20355876 5.2963339 -2.8125 6.9375 C-3.70582031 7.85402344 -4.59914063 8.77054687 -5.51953125 9.71484375 C-8 12 -8 12 -11 13 C-9.46356148 9.31930113 -7.21849055 7.01224796 -4.375 4.25 C-3.55773437 3.45078125 -2.74046875 2.6515625 -1.8984375 1.828125 C-0.95871094 0.92320312 -0.95871094 0.92320312 0 0 Z " fill="#2B353A" transform="translate(901,495)"/>
<path d="M0 0 C1.23102992 3.69308976 0.87175152 6.88050712 0.5625 10.6875 C0.51029297 11.38939453 0.45808594 12.09128906 0.40429688 12.81445312 C0.27492135 14.54338054 0.13817469 16.27175355 0 18 C-1.65 17.67 -3.3 17.34 -5 17 C-4.01 16.67 -3.02 16.34 -2 16 C-2.061875 14.2675 -2.061875 14.2675 -2.125 12.5 C-2.14087433 8.05518699 -1.21793105 4.26275869 0 0 Z " fill="#2D3B49" transform="translate(724,643)"/>
<path d="M0 0 C0.66 0.33 1.32 0.66 2 1 C1.46890625 1.38671875 0.9378125 1.7734375 0.390625 2.171875 C-3.32822227 4.91350693 -6.85329738 7.59107216 -10 11 C-10.33 10.01 -10.66 9.02 -11 8 C-8.83385197 5.69125289 -6.60793392 3.94709819 -3.9375 2.25 C-2.89916016 1.57710938 -2.89916016 1.57710938 -1.83984375 0.890625 C-1.23269531 0.59671875 -0.62554687 0.3028125 0 0 Z " fill="#4EB331" transform="translate(266,314)"/>
<path d="M0 0 C0.96661363 3.12180401 0.98988909 5.52083795 0.5625 8.75 C0.40974609 9.94882812 0.40974609 9.94882812 0.25390625 11.171875 C0.12822266 12.07679688 0.12822266 12.07679688 0 13 C-0.66 13 -1.32 13 -2 13 C-2.05447047 11.58376784 -2.09300508 10.16691809 -2.125 8.75 C-2.14820313 7.96109375 -2.17140625 7.1721875 -2.1953125 6.359375 C-1.9828378 3.79268059 -1.28654105 2.2083933 0 0 Z " fill="#49B22E" transform="translate(212,745)"/>
<path d="M0 0 C1.1446875 -0.00515625 2.289375 -0.0103125 3.46875 -0.015625 C6.5 0.25 6.5 0.25 9.5 2.25 C7.1739143 2.63063221 4.83944736 2.96269945 2.5 3.25 C2.17 2.92 1.84 2.59 1.5 2.25 C-0.35287502 2.17773498 -2.20833878 2.1661878 -4.0625 2.1875 C-5.07441406 2.19652344 -6.08632813 2.20554687 -7.12890625 2.21484375 C-7.91136719 2.22644531 -8.69382812 2.23804688 -9.5 2.25 C-5.92878282 -0.13081145 -4.23325367 -0.01906871 0 0 Z " fill="#FE8B09" transform="translate(782.5,722.75)"/>
<path d="M0 0 C0.33 0.99 0.66 1.98 1 3 C1.99 3 2.98 3 4 3 C2.90648447 6.17119503 1.9873012 7.00783543 -0.9375 8.8125 C-4 10 -4 10 -7 9 C-1.25 6 -1.25 6 1 6 C1 5.34 1 4.68 1 4 C0.01 3.67 -0.98 3.34 -2 3 C-1.34 2.01 -0.68 1.02 0 0 Z " fill="#4CB628" transform="translate(186,417)"/>
<path d="M0 0 C0.99 0.33 1.98 0.66 3 1 C3.26252625 5.33168317 2.29243536 8.8803623 1 13 C0.67 13 0.34 13 0 13 C0 8.71 0 4.42 0 0 Z " fill="#F09621" transform="translate(697,469)"/>
<path d="M0 0 C3.94139078 1.66751148 6.7892812 4.22710649 10 7 C7 7 7 7 4.5 5.4375 C3.675 4.963125 2.85 4.48875 2 4 C1.01 4.33 0.02 4.66 -1 5 C-0.67 3.35 -0.34 1.7 0 0 Z " fill="#2A3438" transform="translate(200,403)"/>
<path d="M0 0 C3.3 0 6.6 0 10 0 C9.67 0.99 9.34 1.98 9 3 C5.7 3 2.4 3 -1 3 C-0.67 2.01 -0.34 1.02 0 0 Z " fill="#434C50" transform="translate(425,508)"/>
<path d="M0 0 C0.33 0.66 0.66 1.32 1 2 C-1.31 4.64 -3.62 7.28 -6 10 C-6.66 9.67 -7.32 9.34 -8 9 C-6.85459775 7.68712379 -5.70866567 6.37470979 -4.5625 5.0625 C-3.92441406 4.33160156 -3.28632812 3.60070312 -2.62890625 2.84765625 C-1.77458541 1.87860647 -0.91348825 0.91348825 0 0 Z " fill="#FE900D" transform="translate(837,365)"/>
<path d="M0 0 C1.17949219 0.10183594 2.35898437 0.20367187 3.57421875 0.30859375 C4.47785156 0.39238281 5.38148438 0.47617187 6.3125 0.5625 C6.3125 0.8925 6.3125 1.2225 6.3125 1.5625 C4.39746326 1.78531874 2.48033494 1.99021076 0.5625 2.1875 C-0.50484375 2.30351562 -1.5721875 2.41953125 -2.671875 2.5390625 C-5.72542399 2.56279475 -7.14912421 2.17670985 -9.6875 0.5625 C-6.14075997 -0.61974668 -3.71227005 -0.33079634 0 0 Z " fill="#FE9F2A" transform="translate(741.6875,381.4375)"/>
<path d="M0 0 C1.1446875 0.2475 1.1446875 0.2475 2.3125 0.5 C5.03596236 1.09145396 5.03596236 1.09145396 8 1 C2.25 6 2.25 6 0 6 C0 4.02 0 2.04 0 0 Z " fill="#363E41" transform="translate(778,333)"/>
<path d="M0 0 C0.66 0.33 1.32 0.66 2 1 C-0.97 3.64 -3.94 6.28 -7 9 C-7.66 8.34 -8.32 7.68 -9 7 C-6.03 4.69 -3.06 2.38 0 0 Z " fill="#252F34" transform="translate(879,516)"/>
<path d="M0 0 C1.98567708 0.09765625 3.97135417 0.1953125 5.95703125 0.29296875 C5.62703125 1.28296875 5.29703125 2.27296875 4.95703125 3.29296875 C1.65703125 3.29296875 -1.64296875 3.29296875 -5.04296875 3.29296875 C-2.04296875 0.29296875 -2.04296875 0.29296875 0 0 Z " fill="#40494E" transform="translate(619.04296875,507.70703125)"/>
<path d="M0 0 C2.33965571 2.22723982 4.27099166 4.58956647 6.1875 7.1875 C6.71730469 7.90292969 7.24710938 8.61835937 7.79296875 9.35546875 C8.39044922 10.16951172 8.39044922 10.16951172 9 11 C6.2941403 10.32353508 4.48483064 9.64282657 2.77734375 7.37890625 C0 2.59072581 0 2.59072581 0 0 Z " fill="#2F383D" transform="translate(161,853)"/>
<path d="M0 0 C0.66 0.33 1.32 0.66 2 1 C-1.17320782 4.53586014 -3.16743695 6.58578031 -8 7 C-5.42215154 4.35247996 -3.08351902 2.05567935 0 0 Z " fill="#263035" transform="translate(339,824)"/>
<path d="M0 0 C0.33 0.66 0.66 1.32 1 2 C0.109375 3.9453125 0.109375 3.9453125 -1.25 6.125 C-1.68828125 6.84945312 -2.1265625 7.57390625 -2.578125 8.3203125 C-3.04734375 8.87460937 -3.5165625 9.42890625 -4 10 C-4.99 10 -5.98 10 -7 10 C-3.535 5.05 -3.535 5.05 0 0 Z " fill="#242F33" transform="translate(393,769)"/>
<path d="M0 0 C0.33 0.99 0.66 1.98 1 3 C-0.28965176 4.37562854 -1.62689293 5.70766393 -3 7 C-3.66 7 -4.32 7 -5 7 C-5 5.68 -5 4.36 -5 3 C-4.34 3 -3.68 3 -3 3 C-2.67 2.34 -2.34 1.68 -2 1 C-1.34 1.33 -0.68 1.66 0 2 C0 1.34 0 0.68 0 0 Z " fill="#4CB334" transform="translate(318,495)"/>
<path d="M0 0 C0.99 0.495 0.99 0.495 2 1 C2.4140625 3.06640625 2.4140625 3.06640625 2.625 5.5625 C2.69976562 6.38878906 2.77453125 7.21507812 2.8515625 8.06640625 C2.92503906 9.02353516 2.92503906 9.02353516 3 10 C2.34 10 1.68 10 1 10 C-0.1577506 6.52674819 -0.06866652 3.63932552 0 0 Z " fill="#2D373C" transform="translate(497,323)"/>
<path d="M0 0 C0.66 0.33 1.32 0.66 2 1 C1.71125 1.70125 1.4225 2.4025 1.125 3.125 C-0.02133588 6.05452503 -1.02625654 9.00921653 -2 12 C-2.33 12 -2.66 12 -3 12 C-2.14285714 3.42857143 -2.14285714 3.42857143 0 0 Z " fill="#2F383D" transform="translate(940,268)"/>
<path d="M0 0 C0 0.66 0 1.32 0 2 C-3 4 -3 4 -5.1875 3.625 C-5.785625 3.41875 -6.38375 3.2125 -7 3 C-7 2.34 -7 1.68 -7 1 C-4.53721199 -0.231394 -2.7204945 -0.07159196 0 0 Z " fill="#303840" transform="translate(306,637)"/>
<path d="M0 0 C1.98 0.495 1.98 0.495 4 1 C4 1.66 4 2.32 4 3 C5.32 3.66 6.64 4.32 8 5 C1.25 4.25 1.25 4.25 -1 2 C-0.67 1.34 -0.34 0.68 0 0 Z " fill="#2D353B" transform="translate(321,492)"/>
<path d="M0 0 C0.66 0.33 1.32 0.66 2 1 C-2.75 5 -2.75 5 -5 5 C-4.67 5.99 -4.34 6.98 -4 8 C-4.99 8 -5.98 8 -7 8 C-6.875 6.25 -6.875 6.25 -6 4 C-2.9375 1.75 -2.9375 1.75 0 0 Z " fill="#2C5495" transform="translate(537,432)"/>
<path d="M0 0 C0.66 0.33 1.32 0.66 2 1 C-1.96 4.465 -1.96 4.465 -6 8 C-6 5 -6 5 -4.6875 3.61328125 C-3.125 2.40885417 -1.5625 1.20442708 0 0 Z " fill="#3BA429" transform="translate(146,218)"/>
<path d="M0 0 C0.8971875 0.5259375 0.8971875 0.5259375 1.8125 1.0625 C-0.94674185 2.86661967 -2.07722103 3.0752245 -5.4375 2.6875 C-6.345 2.48125 -7.2525 2.275 -8.1875 2.0625 C-3.10054348 -1.32880435 -3.10054348 -1.32880435 0 0 Z " fill="#295DAA" transform="translate(505.1875,343.9375)"/>
<path d="M0 0 C0.99 0.33 1.98 0.66 3 1 C2.01 2.32 1.02 3.64 0 5 C-1.32 4.34 -2.64 3.68 -4 3 C-2.1875 1.4375 -2.1875 1.4375 0 0 Z " fill="#32393F" transform="translate(304,377)"/>
</svg>
